<?xml version="1.0" encoding="utf-8"?>
<!-- Generator: Adobe Illustrator 12.0.0, SVG Export Plug-In . SVG Version: 6.00 Build 51448)  -->
<!DOCTYPE svg PUBLIC "-//W3C//DTD SVG 1.0//EN" "http://www.w3.org/TR/2001/REC-SVG-20010904/DTD/svg10.dtd" [
	<!ENTITY ns_svg "http://www.w3.org/2000/svg">
	<!ENTITY ns_xlink "http://www.w3.org/1999/xlink">
]>
<svg  version="1.0" id="Layer_1" xmlns="&ns_svg;" xmlns:xlink="&ns_xlink;" width="65" height="65" viewBox="0 0 65 65"
	 overflow="visible" enable-background="new 0 0 65 65" xml:space="preserve">
<g>
	<g>
		<circle fill="#101832" cx="32.5" cy="32.5" r="32.5"/>
	</g>
	
		<linearGradient id="XMLID_3_" gradientUnits="userSpaceOnUse" x1="808.082" y1="544.293" x2="840.2754" y2="544.293" gradientTransform="matrix(1 0 0 1 -791.6797 -513.1992)">
		<stop  offset="4.114840e-007" style="stop-color:#F9FAFB"/>
		<stop  offset="1" style="stop-color:#CBD6DF"/>
	</linearGradient>
	<path fill="url(#XMLID_3_)" d="M32.499,46.666c8.89,0,16.097-6.973,16.097-15.573s-7.207-15.572-16.097-15.572
		c-8.889,0-16.096,6.972-16.096,15.572S23.609,46.666,32.499,46.666z"/>
	<path fill="#FFFFFF" d="M17.02,26.853c0.024-0.089,0.048-0.181,0.074-0.276C17.069,26.665,17.045,26.757,17.02,26.853z"/>
	<path fill="#FFFFFF" d="M17.094,26.577c0.2-0.562,0.417-1.167,0.718-1.833C17.562,25.274,17.318,25.868,17.094,26.577z"/>
	<path fill="#FFFFFF" d="M17.812,24.744c0.262-0.555,0.532-1.042,0.798-1.521C18.284,23.765,18.027,24.27,17.812,24.744z"/>
	<path fill="#FFFFFF" d="M16.419,30.496c-0.002,0.069-0.001,0.138,0,0.208c0.008-0.218,0.018-0.418,0.028-0.607
		C16.436,30.229,16.425,30.362,16.419,30.496z"/>
	<path fill="#FFFFFF" d="M23.551,44.02c-0.129-0.084-0.255-0.166-0.368-0.237C23.302,43.861,23.425,43.941,23.551,44.02z"/>
	<path fill="#FFFFFF" d="M21.564,19.677c0.276-0.243,0.579-0.486,1.083-0.89C22.14,19.182,21.859,19.409,21.564,19.677z"/>
	<path fill="#FFFFFF" d="M23.052,18.493L23,18.532c0.004-0.002,0.007-0.005,0.011-0.008C23.025,18.514,23.038,18.503,23.052,18.493z
		"/>
	<path fill="#FFFFFF" d="M18.61,23.223c0.275-0.419,0.475-0.721,0.666-0.992C19.089,22.495,18.881,22.806,18.61,23.223z"/>
	<path fill="#FFFFFF" d="M22.646,18.788L23,18.533C22.896,18.606,22.781,18.689,22.646,18.788z"/>
	<path fill="#FFFFFF" d="M19.275,22.232c0.397-0.56,0.697-0.904,1.294-1.588C19.919,21.38,19.61,21.758,19.275,22.232z"/>
	<path fill="#FFFFFF" d="M25.149,44.938c-0.017-0.008-0.036-0.02-0.054-0.026C25.113,44.918,25.131,44.928,25.149,44.938z"/>
	<path fill="#FFFFFF" d="M46.393,38.963c-0.274,0.418-0.476,0.719-0.666,0.99C45.913,39.691,46.121,39.379,46.393,38.963z"/>
	<path fill="#FFFFFF" d="M48.32,33.941c-0.098,0.473-0.23,0.986-0.413,1.666C48.125,34.846,48.234,34.42,48.32,33.941z"/>
	<path fill="#FFFFFF" d="M48.52,32.58c-0.08,0.602-0.133,0.997-0.199,1.363C48.414,33.486,48.477,33.068,48.52,32.58z"/>
	<path fill="#FFFFFF" d="M40.102,44.811c-0.002,0.002-0.002,0.002-0.004,0.002l-0.021,0.01L40.102,44.811z"/>
	<path fill="#FFFFFF" d="M47.907,35.609c-0.2,0.561-0.417,1.166-0.72,1.834C47.439,36.912,47.684,36.318,47.907,35.609z"/>
	<path fill="#FFFFFF" d="M47.189,37.441c-0.263,0.557-0.531,1.043-0.797,1.521C46.717,38.42,46.975,37.916,47.189,37.441z"/>
	<path fill="#FFFFFF" d="M45.727,39.953c-0.397,0.561-0.697,0.904-1.293,1.588C45.082,40.807,45.393,40.428,45.727,39.953z"/>
	<path fill="#FFFFFF" d="M43.438,42.508c-0.274,0.244-0.578,0.486-1.082,0.891C42.861,43.004,43.143,42.777,43.438,42.508z"/>
	<path fill="#FFFFFF" d="M24.542,17.568c-0.123,0.07-0.243,0.14-0.358,0.212c0.116-0.068,0.246-0.144,0.394-0.229
		C24.566,17.556,24.554,17.562,24.542,17.568z"/>
	<path fill="#FFFFFF" d="M41.95,43.691l0.056-0.041c-0.027,0.02-0.054,0.039-0.08,0.057C41.936,43.701,41.941,43.695,41.95,43.691z"
		/>
	<path fill="#FFFFFF" d="M42.355,43.398l-0.351,0.252C42.109,43.576,42.223,43.494,42.355,43.398z"/>
	<path fill="#FFFFFF" d="M45.766,22.269c0.402,0.614,0.644,0.979,0.871,1.383C46.418,23.258,46.184,22.889,45.766,22.269z"/>
	<path fill="#FFFFFF" d="M47.32,25.007c0.266,0.676,0.424,1.078,0.553,1.472C47.741,26.051,47.596,25.675,47.32,25.007z"/>
	<path fill="#FFFFFF" d="M47.873,26.479c0.115,0.375,0.221,0.789,0.396,1.473C48.109,27.279,48.006,26.884,47.873,26.479z"/>
	<path fill="#FFFFFF" d="M46.637,23.652c0.199,0.36,0.385,0.741,0.684,1.355C47.031,24.394,46.838,24.008,46.637,23.652z"/>
	<path fill="#FFFFFF" d="M45.5,21.926c0.082,0.106,0.168,0.219,0.264,0.344C45.67,22.145,45.582,22.032,45.5,21.926z"/>
	<path fill="#FFFFFF" d="M45.438,21.847c0.01,0.011,0.018,0.021,0.024,0.032C45.455,21.869,45.447,21.858,45.438,21.847z"/>
	<path fill="#FFFFFF" d="M45.463,21.879c0.012,0.015,0.023,0.031,0.036,0.046C45.486,21.91,45.475,21.894,45.463,21.879z"/>
	<path fill="#FFFFFF" d="M43.438,42.508c0.293-0.258,0.557-0.516,0.996-0.967C43.975,41.996,43.701,42.268,43.438,42.508z"/>
	<path fill="#FFFFFF" d="M48.572,30.24c0-0.009-0.002-0.018-0.002-0.026c0.002,0.023,0.003,0.046,0.004,0.069
		C48.574,30.268,48.573,30.254,48.572,30.24z"/>
	<path fill="#FFFFFF" d="M48.52,32.58c0.006-0.042,0.01-0.084,0.017-0.127l0.026-0.392c-0.004,0.048-0.01,0.096-0.016,0.144
		C48.539,32.335,48.529,32.459,48.52,32.58z"/>
	
		<linearGradient id="XMLID_4_" gradientUnits="userSpaceOnUse" x1="812.2168" y1="530.9268" x2="844.4302" y2="566.3422" gradientTransform="matrix(1 0 0 1 -791.6797 -513.1992)">
		<stop  offset="0" style="stop-color:#C5D1DC"/>
		<stop  offset="1" style="stop-color:#647686"/>
	</linearGradient>
	<path fill="url(#XMLID_4_)" d="M26.233,16.745c-1.034,0.134-1.671,0.406-1.686,0.413l0.146,0.308
		c0.004-0.001,0.057-0.025,0.152-0.058l-0.179,0.091c-0.031,0.019-0.06,0.035-0.089,0.052c0.133-0.069,0.271-0.133,0.41-0.191
		c0.008-0.002,0.016-0.005,0.025-0.008 M25.012,17.352c0.913-0.29,3.681-0.913,6.821,0.867c-5.57-0.005-9.612,2.534-10.504,3.147
		c0.238-1.296,1.19-2.559,2.855-3.585c-0.537,0.313-0.782,0.466-1.173,0.745c-1.509,1.065-2.369,2.328-2.572,3.617
		c-1.899,1.76-3.141,3.362-3.76,6.167c0.101-0.475,0.223-1,0.342-1.456c-0.207,0.778-0.342,1.335-0.432,1.895
		c-0.001,0.005-0.001,0.009-0.002,0.013c0.001-0.004,0.001-0.007,0.002-0.011c-0.067,0.416-0.11,0.835-0.141,1.348
		c0.255-2.839,1.701-5.416,3.946-7.425c-0.03,1.708,1.086,3.423,3.364,4.749c0.01-0.019,0.021-0.037,0.032-0.055
		c-1.722,3.062-2.798,6.413-2.894,9.506c0-0.021,0-0.037,0-0.056c-2.938-1.711-4.424-3.907-4.476-6.112
		c-0.005,0.139-0.01,0.282-0.014,0.435l0.024,0.808c0.143,1.146,0.44,3.537,4.468,5.943c0-0.018,0-0.035,0-0.051
		c0.113,2.967,1.198,5.143,2.92,6.342c-0.004-0.004-0.008-0.006-0.012-0.01c-0.087-0.049-0.171-0.102-0.254-0.152
		c0.222,0.144,0.455,0.293,0.653,0.408c0.266,0.146,0.612,0.34,0.891,0.482c2.015,0.998,4.528,1.521,7.067,1.563l0.065,0.185
		l0.11,0.002l0.619-0.007c0.03,0,0.057-0.063,0.083-0.184c2.538-0.068,5.047-0.619,7.058-1.656l0.237-0.125
		c0.865-0.502,1.14-0.662,1.59-0.979c-0.164,0.115-0.336,0.228-0.516,0.336c1.726-1.219,2.808-3.39,2.916-6.323
		c2.571-1.566,3.983-3.521,4.221-5.514c0.021-0.337,0.037-0.713,0.052-1.157c-0.021-0.47-0.037-0.818-0.056-1.113
		c0.01,0.096,0.021,0.189,0.026,0.279c-0.01-0.167-0.023-0.333-0.043-0.497c-0.041-0.551-0.104-0.952-0.258-1.765
		c0.062,0.361,0.125,0.789,0.182,1.212c-0.432-2.549-1.83-4.845-3.895-6.654c-0.063-1.302-0.795-2.596-2.197-3.708
		c0.008,0.005,0.015,0.011,0.021,0.016c-0.016-0.011-0.029-0.022-0.045-0.034c-0.161-0.127-0.33-0.252-0.509-0.375
		c0.041,0.03,0.079,0.058,0.118,0.087c-0.354-0.252-0.734-0.503-1.146-0.738l-0.546-0.299l0.116-0.306
		c-0.146-0.052-3.533-1.207-7.722,0.958c0.017-0.495,0.058-1.072,0.098-1.553c0.135-0.689,0.262-1.026,0.375-1.02l-0.456-0.011
		l-0.176-0.019c0,0.001-0.001,0.008-0.002,0.017H32.39c0.009-0.001,0.02,0.226,0.032,0.689c-0.047,0.529-0.104,1.265-0.126,1.879
		c-1.31-0.796-2.567-1.183-3.674-1.337c-0.398-0.069-0.802-0.101-1.213-0.086c-0.431-0.001-0.825,0.029-1.175,0.074 M48.561,30.986
		c-0.187,2.042-1.604,4.055-4.237,5.657c-0.125-3.058-1.224-6.35-2.962-9.353c1.979-1.204,3.043-2.717,3.185-4.251
		C46.904,25.214,48.393,27.986,48.561,30.986z M35.902,20.716c-0.846-0.78-1.785-1.524-2.799-2.142
		c3.636,0.095,6.629,1.32,8.471,2.307c0.744,0.425,1.443,0.896,2.092,1.409c-0.129,1.423-1.117,2.825-2.953,3.942
		C39.374,24.153,37.73,22.251,35.902,20.716z M40.884,17.824c1.79,1.134,2.718,2.541,2.792,3.959
		c-0.131-0.096-0.363-0.26-0.687-0.468c-1.009-0.67-2.126-1.243-3.327-1.698c-1.751-0.699-3.975-1.307-6.502-1.38
		c2.751-1.309,5.139-1.156,6.313-0.949C39.973,17.415,40.443,17.593,40.884,17.824z M21.268,21.948
		c0.784-0.599,1.646-1.135,2.572-1.597c1.864-0.866,4.669-1.806,8.042-1.793c-0.499,0.33-1.356,0.946-2.477,1.939
		c-1.932,1.621-3.663,3.667-5.052,5.909c0.011-0.018,0.021-0.035,0.033-0.054C22.275,25.123,21.24,23.533,21.268,21.948z
		 M24.462,27.799c2.172,1.078,4.883,1.641,7.621,1.686c-0.07,3.431-0.111,6.994-0.107,10.08c-3.644-0.061-7.251-0.811-10.142-2.244
		C21.93,34.258,22.906,30.901,24.462,27.799z M23.944,44.266c0.021,0.014,0.042,0.029,0.064,0.043
		C23.987,44.295,23.965,44.279,23.944,44.266z M24.511,44.553c-1.568-1.121-2.56-3.229-2.674-6.158
		c2.891,1.435,6.498,2.185,10.142,2.244c0.014,2.906,0.07,4.807,0.153,5.6C29.394,46.193,26.684,45.629,24.511,44.553z
		 M32.11,28.268c-2.54-0.042-5.053-0.564-7.068-1.563c1.013-1.819,2.223-3.524,3.564-4.998c1.808-1.74,3.146-2.662,3.684-3.002
		l0.012,3.148C32.227,23.773,32.162,25.974,32.11,28.268z M32.649,21.055l-0.009-2.36c1.53,0.884,2.899,2.076,4.038,3.261
		c1.26,1.386,2.401,2.967,3.37,4.65c-2.011,1.037-4.521,1.588-7.062,1.657C32.892,25.646,32.776,23.15,32.649,21.055z
		 M33.027,29.479c2.738-0.075,5.447-0.669,7.613-1.787c1.6,3.082,2.608,6.424,2.725,9.488c-2.885,1.487-6.487,2.276-10.133,2.377
		C33.219,36.471,33.143,32.91,33.027,29.479z M40.691,44.445c-2.168,1.119-4.877,1.713-7.613,1.787
		c0.102-0.793,0.16-2.693,0.158-5.603c3.645-0.099,7.248-0.889,10.133-2.377C43.271,41.184,42.277,43.305,40.691,44.445z"/>
</g>
</svg>
