<?xml version="1.0" encoding="utf-8"?>
<!-- Generator: Adobe Illustrator 12.0.0, SVG Export Plug-In . SVG Version: 6.00 Build 51448)  -->
<!DOCTYPE svg PUBLIC "-//W3C//DTD SVG 1.0//EN" "http://www.w3.org/TR/2001/REC-SVG-20010904/DTD/svg10.dtd" [
	<!ENTITY ns_svg "http://www.w3.org/2000/svg">
	<!ENTITY ns_xlink "http://www.w3.org/1999/xlink">
]>
<svg  version="1.0" id="Layer_1" xmlns="&ns_svg;" xmlns:xlink="&ns_xlink;" width="65" height="65" viewBox="0 0 65 65"
	 overflow="visible" enable-background="new 0 0 65 65" xml:space="preserve">
<g>
	<circle fill="#101832" cx="32.5" cy="32.5" r="32.5"/>
</g>
<linearGradient id="XMLID_7_" gradientUnits="userSpaceOnUse" x1="417.9609" y1="-238.8765" x2="443.2167" y2="-259.3609" gradientTransform="matrix(1 0 0 -1 -395.8398 -210.5996)">
	<stop  offset="0" style="stop-color:#C5D1DC"/>
	<stop  offset="1" style="stop-color:#647686"/>
</linearGradient>
<path fill="url(#XMLID_7_)" d="M30.384,25.169c2.401-1.433,4.577-1.564,6.153-0.62l4.174,2.485c-1.57-0.944-3.745-0.807-6.152,0.62
	c-4.779,2.843-8.632,9.741-8.615,15.411c0.005,2.814,0.972,4.793,2.52,5.726l-4.175-2.485c-1.548-0.927-2.514-2.911-2.52-5.727
	C21.752,34.915,25.61,28.012,30.384,25.169z"/>
<linearGradient id="XMLID_8_" gradientUnits="userSpaceOnUse" x1="421.7832" y1="-248.5078" x2="439.0713" y2="-248.5078" gradientTransform="matrix(1 0 0 -1 -395.8398 -210.5996)">
	<stop  offset="4.114840e-007" style="stop-color:#F9FAFB"/>
	<stop  offset="1" style="stop-color:#CBD6DF"/>
</linearGradient>
<path fill="url(#XMLID_8_)" d="M34.559,27.648c-4.779,2.849-8.632,9.747-8.615,15.417c0.017,5.663,3.898,7.949,8.671,5.1
	c4.774-2.849,8.633-9.746,8.616-15.41S39.333,24.805,34.559,27.648z"/>
<linearGradient id="XMLID_9_" gradientUnits="userSpaceOnUse" x1="421.002" y1="-242.623" x2="424.3965" y2="-242.623" gradientTransform="matrix(1 0 0 -1 -395.8398 -210.5996)">
	<stop  offset="4.114840e-007" style="stop-color:#F9FAFB"/>
	<stop  offset="1" style="stop-color:#CBD6DF"/>
</linearGradient>
<path fill="url(#XMLID_9_)" d="M25.656,32.743c0.661,0.392,1.734,0.392,2.401-0.006c0.667-0.398,0.667-1.035,0.006-1.433
	c-0.661-0.392-1.734-0.392-2.401,0.006C25,31.708,24.995,32.351,25.656,32.743z"/>
<linearGradient id="XMLID_10_" gradientUnits="userSpaceOnUse" x1="420.9922" y1="-233.1152" x2="435.8398" y2="-233.1152" gradientTransform="matrix(1 0 0 -1 -395.8398 -210.5996)">
	<stop  offset="4.114840e-007" style="stop-color:#F9FAFB"/>
	<stop  offset="1" style="stop-color:#CBD6DF"/>
</linearGradient>
<path fill="url(#XMLID_10_)" d="M31.729,14.041c2.05-1.223,4.152-1.376,5.757-0.421C39.084,14.569,40,16.508,40,18.931v6.272
	l-0.012,1.285c-0.033,0.233-0.503-0.165-0.791-0.295c-0.684-0.307-1.226-0.387-2.096-0.353c-0.345,0.011-0.469-0.41-0.497-0.643
	v-6.267c0-1.131-0.3-1.961-0.813-2.269c-0.52-0.307-1.401-0.154-2.361,0.421c-2.645,1.575-4.876,5.55-4.876,8.677v6.272h-3.401
	v-6.278C25.153,21.387,28.04,16.241,31.729,14.041z"/>
<linearGradient id="XMLID_11_" gradientUnits="userSpaceOnUse" x1="429.3984" y1="-248.5059" x2="432.7607" y2="-248.5059" gradientTransform="matrix(1 0 0 -1 -395.8398 -210.5996)">
	<stop  offset="4.114840e-007" style="stop-color:#A8BACB"/>
	<stop  offset="1" style="stop-color:#C5D1DC"/>
</linearGradient>
<path fill="url(#XMLID_11_)" d="M33.559,37.195c0,0.756,0.356,1.188,0.877,1.217v2.855c0,0.522,0.361,0.732,0.802,0.471
	c0.446-0.261,0.808-0.903,0.808-1.427v-2.854c0.52-0.648,0.876-1.513,0.876-2.27c0-1.097-0.751-1.541-1.684-0.988
	c-0.622,0.381-1.169,1.114-1.458,1.893C33.645,36.462,33.559,36.843,33.559,37.195z"/>
<linearGradient id="XMLID_12_" gradientUnits="userSpaceOnUse" x1="429.6191" y1="-246.3145" x2="432.7607" y2="-246.3145" gradientTransform="matrix(1 0 0 -1 -395.8398 -210.5996)">
	<stop  offset="4.114840e-007" style="stop-color:#A8BACB"/>
	<stop  offset="1" style="stop-color:#C5D1DC"/>
</linearGradient>
<path fill="url(#XMLID_12_)" d="M33.779,36.098l2.266,1.365c0.52-0.648,0.876-1.513,0.876-2.27c0-1.098-0.751-1.541-1.684-0.988
	C34.615,34.586,34.068,35.318,33.779,36.098z"/>
</svg>
