<svg width="1410" height="4421" viewBox="0 0 1410 4421" fill="none" xmlns="http://www.w3.org/2000/svg">
<path fill-rule="evenodd" clip-rule="evenodd" d="M45.6206 3632.18L96.5287 3653.77L96.5447 3653.76L148.923 3675.98L148.875 3676.01L197.784 3696.76L197.814 3696.74L250.193 3718.96L250.187 3718.96L300.536 3740.34L300.552 3740.33L352.931 3762.55L352.84 3762.6L404.703 3784.62L404.72 3784.61L457.098 3806.83L457.057 3806.85L508.425 3828.66L508.441 3828.65L560.82 3850.87L560.796 3850.88L610.848 3872.13L610.864 3872.12L663.243 3894.34L663.075 3894.44L710.606 3914.62L710.622 3914.61L763.001 3936.83L750.931 3943.73L698.59 3921.53L698.552 3921.51L646.211 3899.31L646.377 3899.21L598.832 3879.04L598.795 3879.03L546.453 3856.82L546.476 3856.81L496.408 3835.57L496.371 3835.55L444.03 3813.35L444.071 3813.33L392.687 3791.53L392.65 3791.51L340.309 3769.31L340.4 3769.26L288.52 3747.25L288.483 3747.23L288.483 3747.23L236.142 3725.03L236.147 3725.03L187.481 3704.38L187.451 3704.4L135.072 3682.18L135.12 3682.15L85.9451 3661.29L85.9291 3661.3L33.5508 3639.08L45.6206 3632.18Z" fill="url(#paint0_linear_14_3146)"/>
<path d="M467.241 322.638L452.891 313.821C452.306 313.453 451.616 316.287 452.298 315.991L452.891 313.821L439.427 305.556L435.298 305.991C434.615 306.305 440.013 305.908 439.427 305.556L425.077 296.739L411.836 302.787L453.999 328.703L467.241 322.638Z" fill="url(#paint1_linear_14_3146)"/>
<path fill-rule="evenodd" clip-rule="evenodd" d="M457.579 330.881L454 328.686L467.17 322.687L470.749 324.882C480.299 330.748 478.989 339.627 467.849 344.719L463.663 346.63L463.648 346.621L444.118 355.527L427.479 363.126L427.478 363.126L411.874 370.254L395.235 377.853L383.962 370.918L432.845 348.609L432.845 348.609L432.88 348.593L452.391 339.678L452.407 339.688L456.577 337.784C460.448 336.013 460.89 332.928 457.579 330.881ZM287.209 415.073L302.731 407.984C302.833 407.937 302.92 407.912 302.99 407.903L318.353 400.856L334.992 393.257L346.265 400.193L297.347 422.517L297.332 422.508L249.541 444.319L249.526 444.309L202.503 465.785L202.508 465.789L153.591 488.113L153.563 488.096L107.885 508.942L107.93 508.97L59.0119 531.294L58.9968 531.285L11.452 552.983L0.179688 546.048L49.0974 523.723L49.1125 523.733L95.0388 502.773L94.994 502.746L143.912 480.421L143.94 480.438L189.391 459.696L189.386 459.693L238.269 437.384L238.303 437.368L287.186 415.059L287.209 415.073ZM346.282 400.176L395.2 377.852L383.927 370.934L335.009 393.258L346.282 400.176Z" fill="url(#paint2_linear_14_3146)"/>
<path fill-rule="evenodd" clip-rule="evenodd" d="M12.0591 1.19217L56.6146 28.4261L56.6306 28.4189L102.473 56.4393L102.425 56.461L145.231 82.6257L145.261 82.6121L191.103 110.633L191.097 110.635L235.21 137.616L223.181 143.075L177.339 115.054L177.344 115.052L134.75 89.017L134.721 89.0305L88.8784 61.0101L88.926 60.9884L45.8872 34.6815L45.8713 34.6888L0.0290063 6.66828L12.0591 1.19217Z" fill="url(#paint3_linear_14_3146)"/>
<path fill-rule="evenodd" clip-rule="evenodd" d="M482.641 886.287L435.097 864.691L423.824 871.594L472.742 893.814L472.757 893.805L518.683 914.665L518.638 914.693L567.556 936.913L567.584 936.896L614.88 958.379L626.153 951.476L577.235 929.256L577.207 929.274L531.529 908.525L531.574 908.498L482.656 886.278L482.641 886.287Z" fill="url(#paint4_linear_14_3146)"/>
<path fill-rule="evenodd" clip-rule="evenodd" d="M1061.54 1138.69L1109.08 1160.29L1109.1 1160.28L1158.02 1182.5L1157.97 1182.53L1203.65 1203.27L1203.68 1203.26L1252.59 1225.48L1252.59 1225.48L1299.61 1246.85L1299.63 1246.85L1347.42 1268.55L1347.43 1268.54L1396.35 1290.76L1385.08 1297.67L1368.44 1290.1L1353.08 1283.09C1353.01 1283.08 1352.92 1283.06 1352.82 1283.01L1337.29 1275.95L1337.27 1275.97L1288.39 1253.76L1288.35 1253.75L1239.47 1231.54L1239.48 1231.54L1194.03 1210.9L1194 1210.91L1145.08 1188.69L1145.12 1188.67L1099.2 1167.8L1099.18 1167.81L1050.27 1145.59L1061.54 1138.69Z" fill="url(#paint5_linear_14_3146)"/>
<path fill-rule="evenodd" clip-rule="evenodd" d="M13.9245 654.914L61.0515 677.407L61.0666 677.398L109.555 700.541L109.509 700.567L154.786 722.177L154.814 722.161L203.302 745.303L203.296 745.307L249.906 767.569L249.922 767.56L297.293 790.169L297.308 790.161L345.796 813.303L334.395 819.991L317.902 812.114L302.675 804.811C302.604 804.8 302.518 804.774 302.416 804.725L287.031 797.377L287.008 797.39L238.52 774.248L238.521 774.247L190.067 751.121L190.072 751.118L145.02 729.616L144.992 729.632L96.5041 706.49L96.5492 706.463L51.0265 684.736L51.0114 684.745L2.52344 661.602L13.9245 654.914Z" fill="url(#paint6_linear_14_3146)"/>
<path d="M123.166 2312.25L138.689 2305.71C139.323 2305.44 139.574 2308.34 138.945 2307.95L138.689 2305.71L153.251 2299.59L157.266 2300.64C157.894 2301.06 152.619 2299.84 153.251 2299.59L168.774 2293.05L180.943 2301.04L135.334 2320.25L123.166 2312.25Z" fill="url(#paint7_linear_14_3146)"/>
<path fill-rule="evenodd" clip-rule="evenodd" d="M131.465 2321.86L135.336 2320.24L123.229 2312.31L119.358 2313.93C109.028 2318.28 108.976 2327.26 119.213 2333.98L123.06 2336.5L123.077 2336.5L141.029 2348.27L141.028 2348.27L156.321 2358.3L156.322 2358.3L170.663 2367.72L185.956 2377.75L198.15 2372.61L153.221 2343.14L135.257 2331.34L135.24 2331.35L131.407 2328.84C127.85 2326.5 127.881 2323.38 131.465 2321.86ZM287.079 2430.94L272.814 2421.58C272.719 2421.52 272.638 2421.48 272.569 2421.46L258.454 2412.16L243.162 2402.12L230.967 2407.27L275.929 2436.76L275.944 2436.75L319.87 2465.57L319.887 2465.56L363.105 2493.93L363.099 2493.93L408.061 2523.42L408.091 2523.41L450.075 2550.95L450.026 2550.97L494.988 2580.46L495.004 2580.45L538.704 2609.12L550.898 2603.97L505.936 2574.48L505.92 2574.49L463.708 2546.8L463.757 2546.78L418.795 2517.29L418.765 2517.3L376.989 2489.9L376.995 2489.89L332.065 2460.42L332.033 2460.4L287.103 2430.93L287.079 2430.94ZM230.952 2407.25L185.99 2377.76L198.183 2372.63L243.144 2402.12L230.952 2407.25Z" fill="url(#paint8_linear_14_3146)"/>
<path fill-rule="evenodd" clip-rule="evenodd" d="M1396.3 1700.09L1345.46 1721.68L1345.44 1721.67L1293.13 1743.89L1293.18 1743.92L1244.33 1764.67L1244.3 1764.65L1191.99 1786.87L1192 1786.87L1141.71 1808.25L1141.7 1808.24L1089.38 1830.46L1089.48 1830.51L1037.68 1852.53L1037.66 1852.52L985.352 1874.74L985.393 1874.76L934.092 1896.57L934.075 1896.56L881.764 1918.78L881.788 1918.8L831.801 1940.04L831.784 1940.03L779.473 1962.25L779.64 1962.35L732.171 1982.53L732.155 1982.52L679.844 2004.74L691.898 2011.64L744.172 1989.44L744.209 1989.42L796.483 1967.22L796.317 1967.12L843.801 1946.95L843.838 1946.94L896.112 1924.73L896.089 1924.72L946.092 1903.48L946.129 1903.46L998.403 1881.26L998.362 1881.24L1049.68 1859.44L1049.72 1859.42L1101.99 1837.22L1101.9 1837.17L1153.71 1815.16L1153.75 1815.14L1206.02 1792.94L1206.02 1792.94L1254.62 1772.29L1254.65 1772.31L1306.96 1750.09L1306.91 1750.06L1356.03 1729.2L1356.04 1729.21L1408.35 1706.99L1396.3 1700.09Z" fill="url(#paint9_linear_14_3146)"/>
<path d="M602.296 2636.31L587.912 2627.55C587.326 2627.18 586.647 2630.02 587.328 2629.72L587.912 2627.55L574.417 2619.33L570.29 2619.78C569.608 2620.1 575.004 2619.68 574.417 2619.33L560.034 2610.57L546.816 2616.67L589.077 2642.42L602.296 2636.31Z" fill="url(#paint10_linear_14_3146)"/>
<path fill-rule="evenodd" clip-rule="evenodd" d="M592.665 2644.59L589.077 2642.41L602.225 2636.36L605.813 2638.54C615.385 2644.37 614.108 2653.25 602.987 2658.39L598.809 2660.32L598.793 2660.31L579.297 2669.29L579.297 2669.29L562.687 2676.95L562.686 2676.95L547.109 2684.13L530.499 2691.8L519.2 2684.9L567.998 2662.41L567.998 2662.41L587.511 2653.41L587.526 2653.42L591.689 2651.5C595.553 2649.71 595.984 2646.62 592.665 2644.59ZM422.614 2729.42L438.109 2722.28C438.211 2722.23 438.298 2722.2 438.368 2722.19L453.705 2715.09L470.315 2707.43L481.613 2714.32L432.78 2736.83L432.765 2736.82L404.212 2749.98L404.333 2750.06L355.5 2772.57L344.201 2765.67L373.88 2751.99L373.758 2751.92L422.592 2729.41L422.614 2729.42ZM481.631 2714.3L530.464 2691.79L519.165 2684.92L470.332 2707.43L481.631 2714.3Z" fill="url(#paint11_linear_14_3146)"/>
<path d="M1379.19 4247.72L1363.67 4241.17C1363.04 4240.89 1362.78 4243.8 1363.41 4243.4L1363.67 4241.17L1349.12 4235.03L1345.1 4236.09C1344.47 4236.5 1349.75 4235.29 1349.12 4235.03L1333.6 4228.48L1321.42 4236.46L1367.02 4255.71L1379.19 4247.72Z" fill="url(#paint12_linear_14_3146)"/>
<path fill-rule="evenodd" clip-rule="evenodd" d="M1370.88 4257.33L1367.01 4255.7L1379.13 4247.78L1383 4249.41C1393.32 4253.76 1393.37 4262.74 1383.12 4269.45L1379.28 4271.98L1379.26 4271.97L1361.3 4283.72L1361.3 4283.72L1346 4293.75L1346 4293.75L1331.65 4303.15L1316.34 4313.17L1304.15 4308.02L1349.11 4278.58L1349.11 4278.58L1367.08 4266.81L1367.1 4266.81L1370.93 4264.3C1374.49 4261.97 1374.47 4258.85 1370.88 4257.33ZM1215.18 4366.27L1229.45 4356.92C1229.54 4356.86 1229.63 4356.82 1229.69 4356.8L1243.82 4347.52L1259.12 4337.49L1271.31 4342.65L1226.32 4372.1L1226.31 4372.09L1200 4389.32L1200.13 4389.37L1155.14 4418.83L1142.95 4413.67L1170.3 4395.77L1170.16 4395.72L1215.15 4366.26L1215.18 4366.27ZM1271.32 4342.63L1316.31 4313.18L1304.12 4308.04L1259.14 4337.49L1271.32 4342.63Z" fill="url(#paint13_linear_14_3146)"/>
<defs>
<linearGradient id="paint0_linear_14_3146" x1="33.8584" y1="3631.62" x2="595.197" y2="4141.42" gradientUnits="userSpaceOnUse">
<stop stop-color="#322F46" stop-opacity="0"/>
<stop offset="0.468555" stop-color="#322F46"/>
<stop offset="1" stop-color="#322F46" stop-opacity="0"/>
</linearGradient>
<linearGradient id="paint1_linear_14_3146" x1="455.798" y1="323.491" x2="420.298" y2="299.991" gradientUnits="userSpaceOnUse">
<stop stop-color="#322F46"/>
<stop offset="1" stop-color="#322F46" stop-opacity="0"/>
</linearGradient>
<linearGradient id="paint2_linear_14_3146" x1="252.001" y1="433" x2="25.0012" y2="540" gradientUnits="userSpaceOnUse">
<stop stop-color="#322F46"/>
<stop offset="0.96541" stop-color="#322F46" stop-opacity="0"/>
</linearGradient>
<linearGradient id="paint3_linear_14_3146" x1="0.0975217" y1="1.00319" x2="235.333" y2="148.84" gradientUnits="userSpaceOnUse">
<stop stop-color="#322F46" stop-opacity="0"/>
<stop offset="0.468555" stop-color="#322F46"/>
<stop offset="1" stop-color="#322F46" stop-opacity="0"/>
</linearGradient>
<linearGradient id="paint4_linear_14_3146" x1="423.91" y1="864.526" x2="590.867" y2="1004.38" gradientUnits="userSpaceOnUse">
<stop stop-color="#322F46" stop-opacity="0"/>
<stop offset="0.468555" stop-color="#322F46"/>
<stop offset="1" stop-color="#322F46" stop-opacity="0"/>
</linearGradient>
<linearGradient id="paint5_linear_14_3146" x1="1050.41" y1="1138.41" x2="1334.11" y2="1377.97" gradientUnits="userSpaceOnUse">
<stop stop-color="#322F46" stop-opacity="0"/>
<stop offset="0.468555" stop-color="#322F46"/>
<stop offset="1" stop-color="#322F46" stop-opacity="0"/>
</linearGradient>
<linearGradient id="paint6_linear_14_3146" x1="2.6682" y1="654.622" x2="294.702" y2="890.178" gradientUnits="userSpaceOnUse">
<stop stop-color="#322F46" stop-opacity="0"/>
<stop offset="0.468555" stop-color="#322F46"/>
<stop offset="1" stop-color="#322F46" stop-opacity="0"/>
</linearGradient>
<linearGradient id="paint7_linear_14_3146" x1="134.347" y1="2314.83" x2="173.003" y2="2296.99" gradientUnits="userSpaceOnUse">
<stop stop-color="#322F46"/>
<stop offset="1" stop-color="#322F46" stop-opacity="0"/>
</linearGradient>
<linearGradient id="paint8_linear_14_3146" x1="319.157" y1="2454.01" x2="527.282" y2="2594.23" gradientUnits="userSpaceOnUse">
<stop stop-color="#322F46"/>
<stop offset="0.96541" stop-color="#322F46" stop-opacity="0"/>
</linearGradient>
<linearGradient id="paint9_linear_14_3146" x1="1408.05" y1="1699.53" x2="846.778" y2="2208.61" gradientUnits="userSpaceOnUse">
<stop stop-color="#322F46" stop-opacity="0"/>
<stop offset="0.468555" stop-color="#322F46"/>
<stop offset="1" stop-color="#322F46" stop-opacity="0"/>
</linearGradient>
<linearGradient id="paint10_linear_14_3146" x1="590.856" y1="2637.21" x2="555.268" y2="2613.84" gradientUnits="userSpaceOnUse">
<stop stop-color="#322F46"/>
<stop offset="1" stop-color="#322F46" stop-opacity="0"/>
</linearGradient>
<linearGradient id="paint11_linear_14_3146" x1="485.71" y1="2701.6" x2="356.229" y2="2760.67" gradientUnits="userSpaceOnUse">
<stop stop-color="#322F46"/>
<stop offset="0.96541" stop-color="#322F46" stop-opacity="0"/>
</linearGradient>
<linearGradient id="paint12_linear_14_3146" x1="1368.01" y1="4250.29" x2="1329.37" y2="4232.42" gradientUnits="userSpaceOnUse">
<stop stop-color="#322F46"/>
<stop offset="1" stop-color="#322F46" stop-opacity="0"/>
</linearGradient>
<linearGradient id="paint13_linear_14_3146" x1="1273.49" y1="4329.46" x2="1154.11" y2="4406.96" gradientUnits="userSpaceOnUse">
<stop stop-color="#322F46"/>
<stop offset="0.96541" stop-color="#322F46" stop-opacity="0"/>
</linearGradient>
</defs>
</svg>
