<?xml version="1.0" encoding="utf-8"?>
<!-- Generator: Adobe Illustrator 12.0.0, SVG Export Plug-In . SVG Version: 6.00 Build 51448)  -->
<!DOCTYPE svg PUBLIC "-//W3C//DTD SVG 1.0//EN" "http://www.w3.org/TR/2001/REC-SVG-20010904/DTD/svg10.dtd" [
	<!ENTITY ns_svg "http://www.w3.org/2000/svg">
	<!ENTITY ns_xlink "http://www.w3.org/1999/xlink">
]>
<svg  version="1.0" id="Layer_1" xmlns="&ns_svg;" xmlns:xlink="&ns_xlink;" width="56" height="55" viewBox="0 0 56 55"
	 overflow="visible" enable-background="new 0 0 56 55" xml:space="preserve">
<path fill="#272F46" d="M15.612-0.083h25c8.285,0,15,6.716,15,15v24.999c0,8.285-6.715,15-15,15h-25c-8.284,0-15-6.715-15-15V14.917
	C0.612,6.633,7.328-0.083,15.612-0.083z"/>
<linearGradient id="XMLID_2_" gradientUnits="userSpaceOnUse" x1="13.2813" y1="27.417" x2="42.9414" y2="27.417">
	<stop  offset="4.114840e-007" style="stop-color:#F9FAFB"/>
	<stop  offset="1" style="stop-color:#CBD6DF"/>
</linearGradient>
<path fill="url(#XMLID_2_)" d="M28.124,12.833c-8.207,0-14.842,6.683-14.842,14.952c0,6.612,4.252,12.206,10.15,14.185
	c0.736,0.151,1.007-0.321,1.007-0.717c0-0.346-0.025-1.534-0.025-2.772c-4.128,0.893-4.988-1.782-4.988-1.782
	c-0.665-1.732-1.647-2.178-1.647-2.178c-1.351-0.916,0.099-0.916,0.099-0.916c1.499,0.099,2.285,1.534,2.285,1.534
	c1.326,2.277,3.465,1.633,4.325,1.237c0.122-0.966,0.516-1.633,0.934-2.005c-3.293-0.348-6.758-1.634-6.758-7.377
	c0-1.634,0.589-2.971,1.523-4.01c-0.148-0.372-0.664-1.908,0.148-3.962c0,0,1.252-0.396,4.079,1.536
	c1.21-0.328,2.457-0.495,3.71-0.496c1.251,0,2.532,0.173,3.709,0.496c2.826-1.932,4.08-1.536,4.08-1.536
	c0.811,2.055,0.294,3.591,0.147,3.962c0.957,1.04,1.523,2.376,1.523,4.01c0,5.743-3.466,7.006-6.782,7.377
	c0.541,0.471,1.008,1.361,1.008,2.772c0,2.005-0.024,3.614-0.024,4.109c0,0.396,0.269,0.868,1.008,0.719
	c5.896-1.98,10.148-7.574,10.148-14.187C42.966,19.517,36.307,12.833,28.124,12.833z"/>
</svg>
