<svg width="29" height="245" viewBox="0 0 29 245" fill="none" xmlns="http://www.w3.org/2000/svg">
<line x1="15.5" y1="0.00268813" x2="14.5" y2="186.003" stroke="url(#paint0_linear_2_53)"/>
<rect y="186" width="29" height="59" rx="14.5" fill="#EC2D86"/>
<path d="M17.6513 198.576V207H15.5993V203.532H12.4073V207H10.3553V198.576H12.4073V201.876H15.5993V198.576H17.6513ZM9.82569 215.776C9.82569 214.944 10.0057 214.204 10.3657 213.556C10.7257 212.9 11.2257 212.392 11.8657 212.032C12.5137 211.664 13.2457 211.48 14.0617 211.48C15.0617 211.48 15.9177 211.744 16.6297 212.272C17.3417 212.8 17.8177 213.52 18.0577 214.432H15.8017C15.6337 214.08 15.3937 213.812 15.0817 213.628C14.7777 213.444 14.4297 213.352 14.0377 213.352C13.4057 213.352 12.8937 213.572 12.5017 214.012C12.1097 214.452 11.9137 215.04 11.9137 215.776C11.9137 216.512 12.1097 217.1 12.5017 217.54C12.8937 217.98 13.4057 218.2 14.0377 218.2C14.4297 218.2 14.7777 218.108 15.0817 217.924C15.3937 217.74 15.6337 217.472 15.8017 217.12H18.0577C17.8177 218.032 17.3417 218.752 16.6297 219.28C15.9177 219.8 15.0617 220.06 14.0617 220.06C13.2457 220.06 12.5137 219.88 11.8657 219.52C11.2257 219.152 10.7257 218.644 10.3657 217.996C10.0057 217.348 9.82569 216.608 9.82569 215.776ZM13.9366 231.416H16.6246V233H11.8846V224.576H13.9366V231.416Z" fill="white"/>
<defs>
<linearGradient id="paint0_linear_2_53" x1="14.2659" y1="136.543" x2="14.9071" y2="17.2714" gradientUnits="userSpaceOnUse">
<stop stop-color="#EC2D86"/>
<stop offset="1" stop-color="#EC2D86" stop-opacity="0"/>
</linearGradient>
</defs>
</svg>
