<svg width="56" height="55" viewBox="0 0 56 55" fill="none" xmlns="http://www.w3.org/2000/svg">
<rect x="0.313477" width="55" height="55" rx="15" fill="#272F46"/>
<path d="M43.4306 29.8077C43.2467 28.0748 42.8859 26.3812 42.349 24.7252C41.5625 22.3003 40.4193 20.0488 39.0181 17.9236C38.9062 17.7538 38.7658 17.6447 38.5804 17.5626C37.5144 17.0903 36.423 16.6879 35.3031 16.3651C34.4495 16.119 33.5862 15.9106 32.7096 15.7598C32.5413 15.731 32.4512 15.7764 32.366 15.925C32.1368 16.325 31.9526 16.7461 31.7675 17.1657C31.6905 17.3398 31.5915 17.3952 31.4147 17.3652C31.244 17.3364 31.0708 17.3205 30.8986 17.3005C30.2598 17.2267 29.6171 17.2037 28.9766 17.1553C28.0448 17.0851 27.1214 17.1681 26.1949 17.2181C25.7462 17.2423 25.3018 17.3067 24.8558 17.3582C24.5582 17.3925 24.5582 17.3833 24.4188 17.1007C24.256 16.7712 24.0973 16.4393 23.9262 16.1141C23.6982 15.6801 23.7966 15.7007 23.2765 15.7981C21.3312 16.1619 19.4549 16.7498 17.6451 17.5528C17.4278 17.6493 17.2748 17.7842 17.147 17.9794C15.701 20.1871 14.5486 22.5335 13.7603 25.0565C13.0024 27.4824 12.6499 29.9696 12.6183 32.5042C12.6076 33.371 12.6735 34.2371 12.7287 35.1029C12.7412 35.3009 12.8473 35.4186 12.9929 35.5244C13.5136 35.9026 14.0493 36.2584 14.5973 36.5962C16.3799 37.6937 18.2685 38.5595 20.2622 39.1976C20.5751 39.2979 20.5834 39.3003 20.7676 39.0367C20.9781 38.7354 21.1884 38.4329 21.3796 38.1194C21.6398 37.6925 21.8878 37.2576 22.1293 36.8196C22.2286 36.6397 22.2038 36.5971 22.026 36.5116C21.9709 36.4852 21.9123 36.4662 21.8553 36.4435C21.3425 36.2391 20.8408 36.0111 20.3529 35.7533C20.1635 35.6531 19.9768 35.547 19.7914 35.4398C19.7313 35.4048 19.6446 35.3546 19.7065 35.2761C19.8401 35.1066 20.0167 34.9779 20.2024 34.8731C20.3455 34.7922 20.4773 34.9049 20.6033 34.9623C22.9436 36.0255 25.4084 36.5296 27.9694 36.5784C28.8059 36.5943 29.641 36.5217 30.4716 36.4129C32.2143 36.1852 33.8899 35.7202 35.4999 35.0141C36.0356 34.779 35.8766 34.763 36.358 35.1278C36.5916 35.3046 36.587 35.3408 36.3507 35.4919C36.3078 35.5195 36.2636 35.5455 36.2186 35.5691C35.5768 35.9069 34.9313 36.2366 34.2537 36.499C33.9886 36.6017 33.9745 36.6314 34.1047 36.8708C34.5096 37.6158 34.9402 38.3453 35.4444 39.0291C35.6381 39.2917 35.6378 39.2972 35.9434 39.2016C37.862 38.5997 39.6779 37.7706 41.4007 36.735C42.04 36.3507 42.6601 35.9375 43.2635 35.4995C43.3843 35.4122 43.4686 35.3181 43.4796 35.1538C43.5348 34.3294 43.6004 33.5055 43.5973 32.4089C43.5801 31.7193 43.5317 30.7628 43.4306 29.8077ZM24.8028 31.0401C23.6449 32.1839 21.9138 32.0564 20.8923 30.7989C19.7736 29.4213 19.9364 27.343 21.2386 26.2001C21.7345 25.7645 22.304 25.5282 22.7861 25.5457C23.8643 25.55 24.5625 25.9365 25.0946 26.6353C26.1535 28.0261 25.8936 29.9625 24.8028 31.0401ZM35.0555 31.0846C33.9484 32.1557 32.1702 32.0289 31.209 30.8213C30.7193 30.2062 30.4474 29.5046 30.4474 28.7323C30.4474 27.5603 30.8967 26.5887 31.9057 25.9264C32.3259 25.6505 32.7087 25.5506 33.2714 25.5491C34.1624 25.5509 34.8605 25.9374 35.3917 26.6368C36.4003 27.9651 36.2486 29.9303 35.0555 31.0846Z" fill="url(#paint0_linear_2_47)"/>
<defs>
<linearGradient id="paint0_linear_2_47" x1="12.6197" y1="27.509" x2="43.6011" y2="27.509" gradientUnits="userSpaceOnUse">
<stop offset="4.11484e-07" stop-color="#F9FAFB"/>
<stop offset="1" stop-color="#CBD6DF"/>
</linearGradient>
</defs>
</svg>
