<svg width="56" height="55" viewBox="0 0 56 55" fill="none" xmlns="http://www.w3.org/2000/svg">
<rect x="0.771484" width="55" height="55" rx="15" fill="#272F46"/>
<path d="M22.4331 34.2489C22.1721 34.2114 21.9164 34.1896 21.6625 34.1486C20.6479 33.9855 19.7339 33.5876 18.9247 32.954C17.9979 32.2276 17.3343 31.3081 16.9382 30.1963C16.8808 30.0349 16.8873 30.0267 17.054 30.0525C17.4291 30.1106 17.8059 30.1476 18.1863 30.1341C18.6128 30.1188 19.0347 30.0672 19.4495 29.9633C19.463 29.9598 19.4765 29.9563 19.4835 29.9322C19.4571 29.9017 19.4138 29.9005 19.3758 29.8917C18.5069 29.6799 17.7234 29.2938 17.0277 28.7317C16.4309 28.2494 15.9411 27.6756 15.5608 27.0067C15.1536 26.2915 14.9096 25.5228 14.8142 24.7067C14.7896 24.4972 14.7697 24.2866 14.7785 24.0747C14.7832 23.9597 14.7966 23.9492 14.902 24.0037C15.2016 24.1598 15.5093 24.2965 15.8306 24.401C16.2729 24.5447 16.724 24.6451 17.1892 24.6762C17.2588 24.6809 17.3285 24.6902 17.3987 24.6967C17.4075 24.6973 17.4162 24.692 17.4256 24.6891C17.4315 24.6509 17.3969 24.6439 17.3764 24.6292C17.0587 24.4033 16.7597 24.1545 16.4935 23.87C15.6626 22.9805 15.1261 21.9419 14.9148 20.7373C14.8318 20.2627 14.8101 19.785 14.8399 19.3069C14.8838 18.6033 15.0459 17.9257 15.3344 17.2802C15.4128 17.1048 15.4918 16.9294 15.5918 16.7645C15.6462 16.6753 15.665 16.673 15.7323 16.7557C16.1764 17.3025 16.6638 17.8089 17.1711 18.2953C17.7498 18.8509 18.3723 19.3544 19.0247 19.8208C19.8346 20.4 20.6906 20.901 21.5899 21.327C22.4846 21.7512 23.4091 22.0957 24.3634 22.3597C25.0638 22.5533 25.7735 22.6994 26.4921 22.8033C26.8993 22.8619 27.3083 22.9101 27.7197 22.9294C27.7805 22.9324 27.8402 22.9447 27.9011 22.9488C28.0134 22.957 28.0274 22.9435 28.0076 22.8338C27.9701 22.6308 27.9367 22.4277 27.9163 22.2218C27.8736 21.8005 27.8765 21.3804 27.9169 20.9591C27.9695 20.4129 28.1017 19.8871 28.3019 19.3784C28.5552 18.7348 28.9116 18.1557 29.365 17.6335C29.9074 17.008 30.5534 16.5192 31.2942 16.1595C31.9226 15.8544 32.5867 15.6655 33.2842 15.5992C34.1818 15.5141 35.0594 15.6016 35.9114 15.9049C36.62 16.1572 37.2624 16.5245 37.8335 17.0168C37.9581 17.1242 38.0828 17.2315 38.191 17.3542C38.2706 17.4439 38.3519 17.4586 38.4637 17.4334C39.0722 17.2978 39.6696 17.1265 40.2524 16.9024C40.8434 16.6753 41.4162 16.4095 41.9633 16.0897C41.9674 16.0874 41.9715 16.0844 41.9756 16.0827C42.0125 16.068 42.0493 16.0228 42.0885 16.0592C42.1195 16.088 42.0903 16.1308 42.0786 16.1642C41.9294 16.5908 41.7351 16.9957 41.4946 17.3788C41.2038 17.8429 40.8557 18.2589 40.4537 18.628C40.2085 18.8533 39.9458 19.0575 39.6655 19.2382C39.6398 19.2546 39.6029 19.2611 39.5912 19.3157C40.7381 19.1696 41.8334 18.8633 42.8896 18.4015C42.9106 18.469 42.8726 18.4971 42.8504 18.5294C42.5209 19.0035 42.1611 19.453 41.7732 19.8807C41.2612 20.4451 40.6965 20.9503 40.0868 21.4045C39.9809 21.4837 39.94 21.5676 39.9435 21.6984C39.9522 22.0176 39.9499 22.3368 39.947 22.656C39.9429 23.1536 39.899 23.6482 39.844 24.1428C39.7334 25.1438 39.5269 26.1248 39.2454 27.0906C39.0125 27.8892 38.7217 28.666 38.38 29.4241C37.9704 30.3324 37.4918 31.2031 36.9359 32.0298C36.5018 32.6764 36.0284 33.2937 35.5094 33.8752C35.2408 34.1762 34.9699 34.4742 34.6797 34.7535C34.0642 35.3455 33.4141 35.8953 32.7178 36.3899C31.9209 36.9556 31.0789 37.4431 30.1947 37.8562C29.1257 38.3555 28.0128 38.7258 26.863 38.9857C26.2141 39.1324 25.5588 39.2392 24.8982 39.3125C24.6197 39.3436 24.3388 39.3583 24.0597 39.3835C23.6771 39.4181 23.2932 39.3947 22.91 39.4263C22.6917 39.4445 22.4717 39.4076 22.2511 39.4058C21.6988 39.4023 21.1499 39.3448 20.6022 39.2756C19.7228 39.1641 18.8592 38.9787 18.009 38.7293C17.167 38.4829 16.3507 38.1695 15.5567 37.797C14.954 37.5141 14.3724 37.1932 13.8054 36.8441C13.7528 36.8118 13.6884 36.7889 13.6475 36.7085C16.9054 37.0301 19.8334 36.2239 22.4331 34.2489Z" fill="url(#paint0_linear_2_40)"/>
<defs>
<linearGradient id="paint0_linear_2_40" x1="13.6499" y1="27.5087" x2="42.8992" y2="27.5087" gradientUnits="userSpaceOnUse">
<stop offset="4.11484e-07" stop-color="#F9FAFB"/>
<stop offset="1" stop-color="#CBD6DF"/>
</linearGradient>
</defs>
</svg>
