<svg width="31" height="31" viewBox="0 0 31 31" fill="none" xmlns="http://www.w3.org/2000/svg">
<path d="M15.3159 0.991211C7.04501 0.991211 0.315918 7.71957 0.315918 15.9909C0.315918 24.2623 7.04501 30.9912 15.3159 30.9912C23.5874 30.9912 30.3159 24.2616 30.3159 15.9909C30.3159 7.72017 23.5874 0.991211 15.3159 0.991211ZM26.2151 10.0993H23.2734C22.8246 8.22247 22.1641 6.55075 21.3418 5.16718C23.3961 6.31495 25.0919 8.02997 26.2151 10.0993ZM27.7075 15.9909C27.7075 17.1272 27.5529 18.2281 27.2654 19.2742H23.7414C23.872 18.2209 23.9411 17.123 23.9411 15.9915C23.9411 14.86 23.872 13.7616 23.7414 12.7076H27.2654C27.5529 13.7543 27.7075 14.8546 27.7075 15.9909ZM2.9249 15.9909C2.9249 14.8546 3.0795 13.7537 3.36705 12.7076H6.89101C6.76047 13.7616 6.69129 14.86 6.69129 15.9915C6.69129 17.1224 6.76047 18.2203 6.89101 19.2742H3.36705C3.0795 18.2281 2.9249 17.1272 2.9249 15.9909ZM9.30028 15.9915C9.30028 14.8377 9.37968 13.7399 9.52406 12.7076H14.0117V19.2736H9.52346C9.37908 18.2425 9.30028 17.1447 9.30028 15.9915ZM16.6207 3.94122C18.192 4.75151 19.7013 6.96222 20.5718 10.0993H16.6207V3.94122ZM14.0117 3.94122V10.0993H10.0607C10.9311 6.96222 12.4404 4.75151 14.0117 3.94122ZM14.0117 21.8831V28.0418C12.4404 27.2315 10.9311 25.0208 10.0607 21.8831H14.0117ZM16.6207 28.0412V21.8831H20.5718C19.7013 25.0202 18.192 27.2309 16.6207 28.0412ZM16.6207 19.2742V12.7082H21.1084C21.2528 13.7399 21.3322 14.8383 21.3322 15.9921C21.3322 17.1453 21.2528 18.2431 21.1084 19.2748H16.6207V19.2742ZM9.29005 5.16718C8.46771 6.55015 7.8078 8.22187 7.35843 10.0993H4.41678C5.5405 8.02997 7.23631 6.31495 9.29005 5.16718ZM4.41738 21.8831H7.35903C7.8078 23.7606 8.46831 25.4323 9.29005 26.8152C7.23571 25.6675 5.5405 23.9525 4.41738 21.8831ZM21.3424 26.8152C22.1647 25.4317 22.8246 23.76 23.2734 21.8825H26.2151C25.0919 23.9525 23.3961 25.6675 21.3424 26.8152Z" fill="#A8BACB"/>
</svg>
