<svg width="55" height="55" viewBox="0 0 55 55" fill="none" xmlns="http://www.w3.org/2000/svg">
<rect width="55" height="55" rx="15" fill="#272F46"/>
<path d="M29.5456 27.4959C29.5573 32.2353 25.7447 36.2092 20.8625 36.2096C16.0552 36.2101 12.1807 32.3427 12.1758 27.5096C12.1708 22.6119 16.1241 18.7862 20.8659 18.79C25.6878 18.7939 29.5531 22.7196 29.5456 27.4959Z" fill="url(#paint0_linear_2_34)"/>
<path d="M39.1123 27.545C39.0957 29.0488 38.896 30.5486 38.3939 31.9988C38.0763 32.9164 37.6515 33.7778 37.0185 34.5232C36.7083 34.8885 36.3558 35.2077 35.9331 35.4391C34.9898 35.9551 34.0662 35.9002 33.1712 35.3213C32.5577 34.9246 32.104 34.3736 31.7248 33.7573C31.0893 32.725 30.7149 31.5938 30.4754 30.4127C30.3157 29.6248 30.2285 28.8285 30.2014 28.0244C30.1427 26.2865 30.353 24.5877 30.9254 22.9417C31.2342 22.0533 31.6525 21.2219 32.2612 20.4968C32.5822 20.1146 32.9488 19.7839 33.3896 19.5462C34.324 19.0424 35.2381 19.1043 36.1211 19.6749C36.7916 20.108 37.2714 20.7189 37.6681 21.4005C38.3065 22.4973 38.6668 23.6921 38.8883 24.9339C39.0406 25.7892 39.1049 26.6521 39.1123 27.545Z" fill="url(#paint1_linear_2_34)"/>
<path d="M42.8227 27.4885C42.8202 28.0811 42.8184 28.6738 42.7823 29.266C42.7558 29.7003 42.7308 30.1345 42.6846 30.567C42.5547 31.7805 42.4015 32.9896 41.9455 34.1351C41.862 34.3448 41.7559 34.543 41.6097 34.7176C41.3514 35.0255 41.0551 35.0255 40.7988 34.7137C40.5732 34.4394 40.445 34.1146 40.332 33.7834C40.1181 33.1566 39.9894 32.5094 39.8883 31.8564C39.7607 31.0333 39.6817 30.2053 39.6363 29.3732C39.5968 28.6461 39.5698 27.9185 39.5813 27.1907C39.5945 26.3543 39.6271 25.5189 39.7032 24.685C39.7917 23.7164 39.9178 22.7545 40.1568 21.8105C40.2711 21.3589 40.4066 20.914 40.6433 20.5078C40.7136 20.3873 40.7956 20.2758 40.8996 20.1821C41.0879 20.0125 41.3042 20.0076 41.498 20.1704C41.6445 20.2934 41.7431 20.4531 41.8298 20.6202C42.0828 21.1075 42.2218 21.6337 42.34 22.1653C42.5266 23.0048 42.6354 23.856 42.7102 24.7122C42.7879 25.6024 42.829 26.4938 42.8225 27.3873C42.8227 27.4209 42.8227 27.4547 42.8227 27.4885Z" fill="url(#paint2_linear_2_34)"/>
<defs>
<linearGradient id="paint0_linear_2_34" x1="12.1772" y1="27.5063" x2="29.5478" y2="27.5063" gradientUnits="userSpaceOnUse">
<stop offset="4.11484e-07" stop-color="#F9FAFB"/>
<stop offset="1" stop-color="#CBD6DF"/>
</linearGradient>
<linearGradient id="paint1_linear_2_34" x1="30.1926" y1="27.5051" x2="39.1133" y2="27.5051" gradientUnits="userSpaceOnUse">
<stop offset="4.11484e-07" stop-color="#F9FAFB"/>
<stop offset="1" stop-color="#CBD6DF"/>
</linearGradient>
<linearGradient id="paint2_linear_2_34" x1="39.5789" y1="27.5053" x2="42.8235" y2="27.5053" gradientUnits="userSpaceOnUse">
<stop offset="4.11484e-07" stop-color="#F9FAFB"/>
<stop offset="1" stop-color="#CBD6DF"/>
</linearGradient>
</defs>
</svg>
