<svg width="56" height="55" viewBox="0 0 56 55" fill="none" xmlns="http://www.w3.org/2000/svg">
<rect x="0.541992" width="55" height="55" rx="15" fill="#272F46"/>
<path d="M42.0496 17.1732C42.0685 15.4209 41.3552 14.8288 40.0265 15.1437C39.6143 15.2416 39.216 15.4095 38.8221 15.5724C32.4131 18.2179 26.0048 20.8653 19.5984 23.5183C17.398 24.4298 15.1981 25.3439 13.0102 26.2857C12.5223 26.4952 12.0236 26.8096 12.0343 27.4377C12.0457 28.0961 12.5974 28.2955 13.1087 28.4628C14.5953 28.9495 16.0888 29.4153 17.5791 29.89C19.2203 30.4127 20.6703 30.1286 22.1063 29.1231C25.5718 26.6966 29.0916 24.3465 32.629 22.0261C33.1826 21.6631 34.0114 20.7977 34.5524 21.535C35.0151 22.1656 34.0714 22.8271 33.5588 23.3252C31.0345 25.7769 28.4742 28.192 25.9392 30.633C24.8535 31.6783 24.9065 32.516 26.1469 33.4382C27.5735 34.4987 29.0051 35.5573 30.4936 36.5268C32.1285 37.593 33.6743 38.8188 35.4885 39.5864C37.4573 40.4197 38.5248 39.7644 38.8505 37.6561C39.5063 33.406 40.2083 29.1635 40.8755 24.9153C41.3003 22.2117 41.6967 19.5049 42.0496 17.1732Z" fill="url(#paint0_linear_2_44)"/>
<defs>
<linearGradient id="paint0_linear_2_44" x1="12.0367" y1="27.5092" x2="42.0535" y2="27.5092" gradientUnits="userSpaceOnUse">
<stop offset="4.11484e-07" stop-color="#F9FAFB"/>
<stop offset="1" stop-color="#CBD6DF"/>
</linearGradient>
</defs>
</svg>
