<svg width="114" height="40" viewBox="0 0 114 40" fill="none" xmlns="http://www.w3.org/2000/svg">
<path d="M18.614 21.136V33.9263C20.0377 33.1058 21.9926 31.9909 23.4162 31.1915V36.661C27.071 34.5784 30.9383 32.3485 34.5931 30.2659V22.9662L25.0099 28.4357V17.4756L18.614 21.136ZM20.2077 31.1705V22.0405C20.9939 21.5777 22.6088 20.6732 23.395 20.2104V29.3403L20.2077 31.1705ZM32.9995 29.3403C30.4496 30.8129 27.581 32.4327 25.0099 33.9052V30.2659C27.581 28.7933 30.4284 27.1735 32.9995 25.7009V29.3403Z" fill="#EC2D86"/>
<path d="M34.5932 12.0061V17.4756C33.807 17.9385 32.1921 18.843 31.4059 19.3058V17.4756L32.9996 16.5711V14.7409L31.4059 15.6455V17.4546L29.8123 18.3592V14.7409L34.5932 12.0061Z" fill="#EC2D86"/>
<path d="M29.8121 20.2314V18.3801C29.0259 18.8429 27.411 19.7475 26.6248 20.2103V25.6799C28.0484 24.8594 30.0033 23.7445 31.427 22.9451V19.3057C31.4057 19.3057 29.8121 20.2314 29.8121 20.2314ZM29.7908 22.0195L28.1972 22.9241V21.0939L29.7908 20.1893V22.0195Z" fill="#EC2D86"/>
<path d="M6.3959 22.9662C9.49823 24.7543 12.8768 26.6687 15.9791 28.4358V21.136C10.7094 18.1278 5.26971 15.0144 0 12.0061V30.266C3.6548 32.3486 7.52209 34.5785 11.1769 36.6611C12.6006 37.4815 14.5554 38.5965 15.9791 39.3959V32.0961C12.8768 30.308 9.49823 28.3937 6.3959 26.6266V22.9662ZM4.80224 27.5312C7.90457 29.3193 11.2831 31.2336 14.3855 33.0007V36.6611C10.1782 34.2629 5.80093 31.7596 1.59366 29.3614V14.7409C5.77968 17.1391 10.1782 19.6424 14.3642 22.0406V25.701C11.2619 23.9129 7.88332 21.9985 4.78099 20.2315V27.5312H4.80224Z" fill="#EC2D86"/>
<path d="M17.2965 18.864L23.6924 15.2036C22.2687 14.3832 20.3138 13.2893 18.9114 12.4688C19.6976 12.006 21.3125 11.1014 22.0987 10.6386C23.5224 11.4591 25.4773 12.574 26.901 13.3734C28.8984 12.2374 31.2782 10.87 33.2969 9.71301L17.2965 0.604126C15.2991 1.74011 12.898 3.10749 10.9006 4.26451C12.3243 5.08494 14.2792 6.17885 15.6816 6.99928L12.4943 8.82947L7.71328 6.07367C5.71589 7.23068 3.33602 8.59807 1.31738 9.73405M4.52596 9.73405C5.31216 9.27124 6.92707 8.36667 7.71328 7.90386C9.13695 8.72429 11.0706 9.83923 12.4943 10.6386C14.4917 9.50265 16.8928 8.13526 18.8902 6.97824C17.4665 6.15781 15.5116 5.0639 14.1092 4.24347C14.8954 3.78067 16.5103 2.87609 17.2965 2.41328L30.0671 9.71301L26.8797 11.5432L22.0775 8.80844C20.0801 9.96545 17.7002 11.3328 15.7028 12.4688C17.1265 13.2893 19.0814 14.3832 20.4838 15.2036C19.6976 15.6664 18.0827 16.571 17.2965 17.0338L4.52596 9.73405Z" fill="#EC2D86"/>
<path d="M56.3944 6.62061V15.456H55.2257V11.459H50.6785V15.4771H49.5098V6.64164H50.6785V10.4914H55.2257V6.62061H56.3944Z" fill="black"/>
<path d="M67.6777 8.51379L65.4891 15.4559H64.2779L62.578 9.94429L60.8781 15.4559H59.6669L57.457 8.51379H58.647L60.2619 14.341L62.0043 8.51379H63.1942L64.8941 14.362L66.4878 8.51379H67.6777Z" fill="black"/>
<path d="M68.8038 7.14644C68.6551 6.99918 68.5701 6.80985 68.5701 6.57845C68.5701 6.34704 68.6551 6.17875 68.8038 6.01046C68.9525 5.8632 69.1438 5.77905 69.3775 5.77905C69.59 5.77905 69.7813 5.8632 69.93 6.01046C70.0787 6.15771 70.1637 6.34704 70.1637 6.57845C70.1637 6.80985 70.0787 6.97814 69.93 7.14644C69.7813 7.29369 69.59 7.37784 69.3775 7.37784C69.1438 7.37784 68.9525 7.29369 68.8038 7.14644ZM69.93 8.51382V15.4559H68.7613V8.51382H69.93Z" fill="black"/>
<path d="M75.7733 15.456L73.011 12.3846V15.456H71.8423V6.07361H73.011V11.5852L75.7096 8.49283H77.3457L74.0522 11.9639L77.367 15.456H75.7733Z" fill="black"/>
<path d="M78.7905 8.70324C79.1942 8.00903 79.7255 7.48311 80.4054 7.08341C81.0854 6.70475 81.8291 6.49438 82.6578 6.49438C83.6353 6.49438 84.4852 6.72579 85.2077 7.1886C85.9301 7.6514 86.4614 8.30354 86.8013 9.16604H85.3989C85.1439 8.64013 84.8039 8.21939 84.3365 7.94592C83.869 7.6514 83.3165 7.52518 82.6578 7.52518C82.0416 7.52518 81.4679 7.67244 80.9792 7.94592C80.4904 8.24043 80.0867 8.64013 79.8105 9.16604C79.5342 9.69196 79.3855 10.3231 79.3855 11.0173C79.3855 11.7115 79.5342 12.3426 79.8105 12.8685C80.0867 13.3944 80.4904 13.8152 80.9792 14.0886C81.4679 14.3831 82.0416 14.5304 82.6578 14.5304C83.3165 14.5304 83.869 14.3831 84.3365 14.1097C84.8039 13.8362 85.1652 13.4155 85.3989 12.8895H86.8013C86.4614 13.731 85.9301 14.3831 85.2077 14.846C84.4852 15.3088 83.6353 15.5402 82.6578 15.5402C81.8291 15.5402 81.0854 15.3508 80.4054 14.9722C79.7255 14.5935 79.1942 14.0466 78.7905 13.3734C78.408 12.6792 78.1956 11.9219 78.1956 11.0593C78.1956 10.1968 78.408 9.39745 78.7905 8.70324Z" fill="black"/>
<path d="M88.5013 7.14644C88.3526 6.99918 88.2676 6.80985 88.2676 6.57845C88.2676 6.34704 88.3526 6.17875 88.5013 6.01046C88.6501 5.8632 88.8413 5.77905 89.075 5.77905C89.2875 5.77905 89.4788 5.8632 89.6275 6.01046C89.7762 6.15771 89.8612 6.34704 89.8612 6.57845C89.8612 6.80985 89.7762 6.97814 89.6275 7.14644C89.4788 7.29369 89.2875 7.37784 89.075 7.37784C88.8413 7.37784 88.6713 7.29369 88.5013 7.14644ZM89.6275 8.51382V15.4559H88.4588V8.51382H89.6275Z" fill="black"/>
<path d="M93.6012 8.70316C93.9836 8.4928 94.4511 8.36658 94.9823 8.36658V9.56567H94.6849C93.3674 9.56567 92.73 10.2599 92.73 11.6693V15.4559H91.5613V8.51383H92.73V9.64982C92.9212 9.22908 93.2187 8.93457 93.6012 8.70316Z" fill="black"/>
<path d="M96.7885 10.0915C97.086 9.54455 97.4897 9.14485 97.9997 8.85034C98.5097 8.55583 99.1046 8.40857 99.7846 8.40857C100.656 8.40857 101.357 8.61894 101.909 9.03967C102.462 9.4604 102.844 10.0284 103.014 10.7647H101.761C101.633 10.3439 101.4 10.0074 101.06 9.75492C100.72 9.50248 100.295 9.39729 99.7634 9.39729C99.1046 9.39729 98.5522 9.6287 98.1484 10.0705C97.7447 10.4912 97.5322 11.1433 97.5322 11.9638C97.5322 12.8052 97.7447 13.4574 98.1484 13.8991C98.5522 14.362 99.1046 14.5934 99.7634 14.5934C100.273 14.5934 100.698 14.4671 101.038 14.2357C101.378 14.0043 101.612 13.6677 101.739 13.226H102.993C102.802 13.9412 102.419 14.5092 101.867 14.9299C101.293 15.3507 100.592 15.561 99.7421 15.561C99.0834 15.561 98.4884 15.4138 97.9572 15.1193C97.4472 14.8248 97.0435 14.404 96.746 13.8571C96.4485 13.3101 96.321 12.679 96.321 11.9638C96.3423 11.2485 96.491 10.6174 96.7885 10.0915Z" fill="black"/>
<path d="M105.67 6.07361V15.456H104.502V6.07361H105.67Z" fill="black"/>
<path d="M113.958 12.4056H108.348C108.39 13.0998 108.624 13.6258 109.07 14.0044C109.495 14.3831 110.027 14.5724 110.643 14.5724C111.153 14.5724 111.578 14.4462 111.896 14.2148C112.236 13.9834 112.47 13.6678 112.598 13.2892H113.851C113.66 13.9623 113.278 14.5093 112.725 14.909C112.151 15.3297 111.45 15.5401 110.622 15.5401C109.963 15.5401 109.368 15.3928 108.837 15.0983C108.305 14.8038 107.902 14.3831 107.604 13.8361C107.307 13.2892 107.158 12.6581 107.158 11.9428C107.158 11.2276 107.307 10.5965 107.583 10.0495C107.88 9.50256 108.284 9.08182 108.815 8.80835C109.347 8.51383 109.942 8.36658 110.622 8.36658C111.28 8.36658 111.875 8.51383 112.385 8.80835C112.895 9.10286 113.299 9.48152 113.575 9.9864C113.851 10.4913 114 11.0593 114 11.6904C114 11.9428 113.979 12.1742 113.958 12.4056ZM112.491 10.344C112.3 10.0285 112.024 9.77604 111.684 9.62878C111.344 9.46049 110.961 9.37634 110.558 9.37634C109.963 9.37634 109.474 9.56567 109.049 9.94433C108.645 10.323 108.39 10.8279 108.348 11.501H112.789C112.789 11.0382 112.683 10.6596 112.491 10.344Z" fill="black"/>
<path d="M50.9333 20.7993V23.1344H51.6133V21.4725H88.82V31.8646H87.3963V32.5378H89.5V20.7993H50.9333Z" fill="#EC2D86"/>
<path d="M62.5778 27.7625C62.5353 27.7414 62.514 27.6993 62.4715 27.6783C62.344 27.5942 62.1953 27.5521 62.0465 27.51C61.8978 27.4679 61.7491 27.4469 61.6003 27.4469C61.4516 27.4469 61.3028 27.4679 61.1541 27.51C61.0053 27.5521 60.8779 27.5942 60.7504 27.6783C60.6229 27.7624 60.4954 27.8466 60.3891 27.9518C60.2829 28.057 60.1979 28.1832 60.1129 28.3304C59.9429 28.625 59.8579 28.9615 59.8579 29.3612C59.8579 29.6978 59.9217 29.9923 60.0491 30.2658C60.0704 30.3079 60.0704 30.35 60.0916 30.392C60.1341 30.4551 60.1766 30.4972 60.2191 30.5603C60.3466 30.7497 60.4954 30.8969 60.6654 31.0231C60.6866 31.0442 60.7079 31.0652 60.7291 31.0862C60.7716 31.1073 60.8141 31.1073 60.8566 31.1283C61.0903 31.2545 61.3241 31.3177 61.6003 31.3177C61.919 31.3177 62.1953 31.2335 62.4715 31.0862C62.5353 31.0442 62.599 31.0021 62.6628 30.939C62.7265 30.8969 62.7902 30.8548 62.854 30.7917C62.8752 30.7707 62.8965 30.7286 62.939 30.6866C63.0027 30.6024 63.0877 30.5183 63.1515 30.4131C63.1727 30.35 63.194 30.2869 63.2152 30.2448C63.3215 30.0134 63.364 29.7399 63.3852 29.4454C63.3852 29.4244 63.3852 29.4033 63.3852 29.3823C63.3852 28.9826 63.3002 28.646 63.1515 28.3515C62.9815 28.078 62.7902 27.9097 62.5778 27.7625Z" fill="#EC2D86"/>
<path d="M77.3882 27.531C77.1544 27.4258 76.8994 27.3627 76.6019 27.3627C76.5169 27.3627 76.4107 27.3627 76.3257 27.3837C76.2195 27.4047 76.1132 27.4258 76.0282 27.4468C75.8582 27.5099 75.6882 27.5941 75.5608 27.7203C75.497 27.7834 75.4333 27.8465 75.3695 27.9307C75.1995 28.1621 75.0933 28.4355 75.0508 28.7511H78.1956C78.1956 28.3304 78.0256 27.9938 77.7281 27.7203C77.6006 27.6361 77.4944 27.573 77.3882 27.531Z" fill="#EC2D86"/>
<path d="M87.3964 23.1344H51.6134H50.9334H49.5098V34.1997H67.72L68.485 32.4747L68.23 31.8646L67.0826 29.0878L65.8289 26.1006H67.6988L69.3987 30.6655L71.1198 26.1006H72.9047L71.8423 28.625L70.4611 31.8857L70.3336 32.1591L69.4624 34.1997H87.3752V32.5378V31.8646V23.1344H87.3964ZM57.5843 31.3177V31.8646V32.5378V32.6219H53.1646V32.5378V31.8646V24.3966H54.8432V31.3177H57.5843ZM65.0214 32.643H63.3428V32.5588V31.8857V31.6963C63.3003 31.7594 63.2365 31.8226 63.1728 31.8857C63.0878 31.9908 62.9815 32.096 62.8753 32.1802C62.7478 32.2854 62.6203 32.3695 62.4716 32.4537C62.2378 32.5799 62.0041 32.643 61.7278 32.6851C61.5579 32.7271 61.3666 32.7482 61.1754 32.7482C61.0054 32.7482 60.8354 32.7271 60.6654 32.7061C60.6442 32.7061 60.6229 32.7061 60.6017 32.6851C60.2617 32.6219 59.9642 32.4957 59.6667 32.3274C59.5605 32.2643 59.4755 32.2012 59.3692 32.1171C59.2842 32.054 59.1992 31.9698 59.1142 31.8857C59.008 31.7805 58.923 31.6753 58.838 31.5491C58.838 31.5491 58.838 31.5491 58.838 31.528C58.753 31.4018 58.668 31.2756 58.6043 31.1283C58.5405 31.0021 58.4768 30.8759 58.4343 30.7286C58.2855 30.3079 58.2005 29.8451 58.2005 29.3613C58.2005 28.7722 58.3068 28.2674 58.5193 27.8045C58.5405 27.7414 58.583 27.6783 58.6043 27.6152C58.668 27.489 58.753 27.3628 58.8168 27.2576C59.0505 26.921 59.348 26.6475 59.688 26.4372C60.1554 26.1637 60.6654 26.0164 61.2179 26.0164C61.5366 26.0164 61.8128 26.0795 62.0678 26.1426C62.2166 26.1847 62.3653 26.2268 62.5141 26.3109C62.6203 26.3741 62.7053 26.4372 62.8115 26.5003C63.0453 26.6686 63.2365 26.8369 63.4065 27.0472V26.1216H65.0852V32.643H65.0214ZM79.8531 29.8661H75.0296C75.0296 29.9924 75.0509 30.0975 75.0934 30.2027C75.1784 30.5183 75.3271 30.7707 75.5396 30.9811C75.5608 31.0021 75.6033 31.0232 75.6458 31.0652C75.7733 31.1494 75.9008 31.2335 76.0283 31.2966C76.2195 31.3597 76.4108 31.4018 76.6233 31.4018C77.0695 31.4018 77.4095 31.2546 77.6645 31.0021C77.6857 30.9811 77.707 30.9811 77.707 30.9601C77.7282 30.918 77.7495 30.8759 77.792 30.8338C77.8345 30.7707 77.8982 30.6866 77.9407 30.6024H79.7468C79.7044 30.7497 79.6406 30.8759 79.5981 31.0021C79.5769 31.0652 79.5344 31.1073 79.5131 31.1704C79.4706 31.2335 79.4494 31.2966 79.4069 31.3597C79.3644 31.4229 79.3219 31.486 79.2581 31.5491C79.2369 31.5912 79.1944 31.6332 79.1731 31.6543C79.0669 31.7805 78.9394 31.9067 78.8119 32.0119C78.7694 32.054 78.7269 32.096 78.6844 32.1381C78.5569 32.2223 78.4294 32.3064 78.3019 32.3695C78.0044 32.5168 77.6857 32.6219 77.3457 32.6851H77.3245C77.1332 32.7061 76.9208 32.7271 76.7083 32.7271C76.4958 32.7271 76.3045 32.7061 76.1133 32.6851C76.0921 32.6851 76.0496 32.6851 76.0283 32.664C75.6458 32.6009 75.3058 32.4747 74.9871 32.3064C74.8809 32.2433 74.7534 32.1802 74.6684 32.096C74.5621 32.0119 74.4771 31.9488 74.3709 31.8436C74.2647 31.7384 74.1584 31.6332 74.0734 31.507C73.9884 31.3808 73.9034 31.2546 73.8184 31.1283C73.7547 31.0021 73.6909 30.8759 73.6272 30.7286C73.5847 30.5814 73.5209 30.4552 73.4997 30.3079C73.4359 30.0134 73.3934 29.7189 73.3934 29.3823V29.3613C73.3934 29.193 73.3935 29.0247 73.4147 28.8774C73.4572 28.5619 73.5209 28.2674 73.6272 27.9939C73.6697 27.8466 73.7334 27.7204 73.8184 27.5942C73.8822 27.468 73.9672 27.3417 74.0522 27.2366C74.3072 26.9 74.6259 26.6265 74.9871 26.4161C75.4971 26.1426 76.0708 25.9954 76.7083 25.9954C76.857 25.9954 77.027 25.9954 77.1757 26.0164C77.4095 26.0375 77.6007 26.1006 77.8132 26.1637C78.0257 26.2268 78.2169 26.3109 78.4082 26.3951C78.5357 26.4582 78.6419 26.5423 78.7694 26.6265C79.0244 26.8158 79.2369 27.0472 79.4281 27.3207C79.4706 27.3838 79.5344 27.468 79.5769 27.5521C79.7894 27.9308 79.9168 28.3305 79.9593 28.7722C79.9806 28.9195 79.9806 29.0667 79.9806 29.235C79.8956 29.4664 79.8743 29.6768 79.8531 29.8661ZM84.7616 27.7414H84.3153C84.0604 27.7414 83.8266 27.7625 83.6354 27.8256C83.4441 27.8887 83.2742 27.9728 83.1467 28.0991C83.0192 28.2253 82.9129 28.3936 82.8492 28.6039C82.7854 28.8143 82.7429 29.0667 82.7429 29.3823V32.643H81.0643V26.1006H82.7429V27.1103C82.8492 26.942 82.9767 26.7737 83.1042 26.6475C83.2317 26.5213 83.4016 26.3951 83.5716 26.2899C83.9116 26.1006 84.3153 25.9954 84.7616 25.9954V27.7414Z" fill="#EC2D86"/>
</svg>
