<svg width="150" height="54" viewBox="0 0 150 54" fill="none" xmlns="http://www.w3.org/2000/svg">
<path d="M24.4922 28.4567V45.8075C26.3654 44.6945 28.9377 43.182 30.8109 42.0976V49.5173C35.6199 46.6921 40.7084 43.6672 45.5174 40.842V30.9395L32.9078 38.3592V23.4912L24.4922 28.4567ZM26.5891 42.0691V29.6838C27.6236 29.056 29.7485 27.8289 30.783 27.2011V39.5863L26.5891 42.0691ZM43.4204 39.5863C40.0654 41.5839 36.2909 43.7813 32.9078 45.7789V40.842C36.2909 38.8443 40.0374 36.647 43.4204 34.6493V39.5863Z" fill="#EC2D86"/>
<path d="M45.5173 16.0713V23.491C44.4829 24.1188 42.358 25.346 41.3235 25.9738V23.491L43.4204 22.2639V19.7812L41.3235 21.0083V23.4625L39.2266 24.6896V19.7812L45.5173 16.0713Z" fill="#EC2D86"/>
<path d="M39.2263 27.2291V24.7178C38.1918 25.3456 36.067 26.5727 35.0325 27.2005V34.6203C36.9057 33.5073 39.478 31.9948 41.3512 30.9104V25.9734C41.3232 25.9734 39.2263 27.2291 39.2263 27.2291ZM39.1984 29.6547L37.1014 30.8819V28.3991L39.1984 27.172V29.6547Z" fill="#EC2D86"/>
<path d="M8.41566 30.9393C12.4977 33.365 16.9432 35.9619 21.0252 38.359V28.4565C14.0913 24.3757 6.93383 20.1521 0 16.0713V40.8418C4.80895 43.667 9.89749 46.6919 14.7064 49.5171C16.5797 50.6301 19.1519 52.1426 21.0252 53.227V43.3245C16.9432 40.8988 12.4977 38.3019 8.41566 35.9048V30.9393ZM6.31874 37.1319C10.4007 39.5576 14.8462 42.1545 18.9282 44.5516V49.5171C13.3924 46.2639 7.63281 42.8679 2.09693 39.6147V19.7812C7.60485 23.0344 13.3924 26.4304 18.9003 29.6836V34.6491C14.8183 32.2235 10.3728 29.6266 6.29078 27.2294V37.1319H6.31874Z" fill="#EC2D86"/>
<path d="M22.7586 25.3745L31.1742 20.409C29.301 19.296 26.7287 17.8121 24.8835 16.6991C25.9179 16.0713 28.0428 14.8442 29.0773 14.2164C30.9506 15.3293 33.5228 16.8418 35.396 17.9262C38.0242 16.3852 41.1556 14.5303 43.8117 12.9607L22.7586 0.604004C20.1304 2.14502 16.9711 3.99996 14.3429 5.56951C16.2162 6.68247 18.7884 8.16642 20.6337 9.27938L16.4398 11.7621L10.1491 8.02373C7.52091 9.59329 4.3895 11.4482 1.7334 12.9892M5.95521 12.9892C6.98969 12.3614 9.11458 11.1343 10.1491 10.5065C12.0223 11.6194 14.5666 13.1319 16.4398 14.2164C19.068 12.6753 22.2273 10.8204 24.8555 9.25084C22.9822 8.13788 20.41 6.65394 18.5647 5.54098C19.5992 4.91315 21.7241 3.68605 22.7586 3.05822L39.5619 12.9607L35.3681 15.4435L29.0493 11.7336C26.4212 13.3032 23.2898 15.1581 20.6616 16.6991C22.5349 17.8121 25.1071 19.296 26.9524 20.409C25.9179 21.0368 23.7931 22.2639 22.7586 22.8917L5.95521 12.9892Z" fill="#EC2D86"/>
<path d="M74.2032 8.76514V20.7509H72.6655V15.3287H66.6823V20.7794H65.1445V8.79367H66.6823V14.016H72.6655V8.76514H74.2032Z" fill="black"/>
<path d="M89.0496 11.3335L86.1698 20.7508H84.5762L82.3394 13.274L80.1027 20.7508H78.5091L75.6013 11.3335H77.167L79.2919 19.2384L81.5845 11.3335H83.1502L85.387 19.2669L87.4839 11.3335H89.0496Z" fill="black"/>
<path d="M90.5314 9.47896C90.3357 9.27919 90.2239 9.02236 90.2239 8.70845C90.2239 8.39453 90.3357 8.16623 90.5314 7.93794C90.7271 7.73817 90.9788 7.62402 91.2863 7.62402C91.5659 7.62402 91.8175 7.73817 92.0133 7.93794C92.209 8.1377 92.3208 8.39453 92.3208 8.70845C92.3208 9.02236 92.209 9.25066 92.0133 9.47896C91.8175 9.67872 91.5659 9.79287 91.2863 9.79287C90.9788 9.79287 90.7271 9.67872 90.5314 9.47896ZM92.0133 11.3339V20.7512H90.4755V11.3339H92.0133Z" fill="black"/>
<path d="M99.7017 20.7511L96.067 16.5847V20.7511H94.5293V8.02344H96.067V15.5002L99.6178 11.3052H101.771L97.437 16.0139L101.799 20.7511H99.7017Z" fill="black"/>
<path d="M103.672 11.5907C104.203 10.6489 104.902 9.9355 105.797 9.39329C106.691 8.87961 107.67 8.59424 108.76 8.59424C110.046 8.59424 111.165 8.90815 112.115 9.53597C113.066 10.1638 113.765 11.0485 114.212 12.2185H112.367C112.032 11.5051 111.584 10.9343 110.969 10.5633C110.354 10.1638 109.627 9.99257 108.76 9.99257C107.949 9.99257 107.195 10.1923 106.552 10.5633C105.908 10.9628 105.377 11.5051 105.014 12.2185C104.65 12.9319 104.455 13.788 104.455 14.7298C104.455 15.6715 104.65 16.5276 105.014 17.2411C105.377 17.9545 105.908 18.5253 106.552 18.8962C107.195 19.2958 107.949 19.4955 108.76 19.4955C109.627 19.4955 110.354 19.2958 110.969 18.9248C111.584 18.5538 112.059 17.9831 112.367 17.2696H114.212C113.765 18.4111 113.066 19.2958 112.115 19.9236C111.165 20.5514 110.046 20.8653 108.76 20.8653C107.67 20.8653 106.691 20.6085 105.797 20.0948C104.902 19.5811 104.203 18.8392 103.672 17.926C103.169 16.9842 102.889 15.9569 102.889 14.7869C102.889 13.6168 103.169 12.5324 103.672 11.5907Z" fill="black"/>
<path d="M116.449 9.47896C116.253 9.27919 116.142 9.02236 116.142 8.70845C116.142 8.39453 116.253 8.16623 116.449 7.93794C116.645 7.73817 116.896 7.62402 117.204 7.62402C117.484 7.62402 117.735 7.73817 117.931 7.93794C118.127 8.1377 118.239 8.39453 118.239 8.70845C118.239 9.02236 118.127 9.25066 117.931 9.47896C117.735 9.67872 117.484 9.79287 117.204 9.79287C116.896 9.79287 116.673 9.67872 116.449 9.47896ZM117.931 11.3339V20.7512H116.393V11.3339H117.931Z" fill="black"/>
<path d="M123.159 11.5904C123.663 11.305 124.278 11.1338 124.977 11.1338V12.7604H124.585C122.852 12.7604 122.013 13.7022 122.013 15.6142V20.7509H120.475V11.3336H122.013V12.8746C122.265 12.3038 122.656 11.9043 123.159 11.5904Z" fill="black"/>
<path d="M127.353 13.4739C127.745 12.7319 128.276 12.1897 128.947 11.7902C129.618 11.3907 130.401 11.1909 131.296 11.1909C132.442 11.1909 133.365 11.4763 134.092 12.047C134.818 12.6178 135.322 13.3883 135.545 14.3871H133.896C133.728 13.8164 133.42 13.3598 132.973 13.0173C132.526 12.6749 131.967 12.5322 131.268 12.5322C130.401 12.5322 129.674 12.8461 129.143 13.4454C128.612 14.0161 128.332 14.9008 128.332 16.0137C128.332 17.1552 128.612 18.0399 129.143 18.6392C129.674 19.267 130.401 19.5809 131.268 19.5809C131.939 19.5809 132.498 19.4097 132.945 19.0958C133.393 18.7819 133.7 18.3253 133.868 17.726H135.517C135.266 18.6963 134.763 19.4668 134.036 20.0375C133.281 20.6083 132.358 20.8936 131.24 20.8936C130.373 20.8936 129.59 20.6939 128.891 20.2944C128.22 19.8948 127.689 19.3241 127.297 18.5821C126.906 17.8401 126.738 16.984 126.738 16.0137C126.766 15.0435 126.962 14.1873 127.353 13.4739Z" fill="black"/>
<path d="M139.04 8.02344V20.7511H137.502V8.02344H139.04Z" fill="black"/>
<path d="M149.944 16.613H142.563C142.619 17.5547 142.926 18.2681 143.514 18.7818C144.073 19.2955 144.772 19.5523 145.583 19.5523C146.254 19.5523 146.813 19.3811 147.232 19.0672C147.68 18.7533 147.987 18.3252 148.155 17.8115H149.804C149.553 18.7247 149.05 19.4667 148.323 20.0089C147.568 20.5797 146.645 20.865 145.555 20.865C144.688 20.865 143.905 20.6653 143.206 20.2658C142.507 19.8662 141.976 19.2955 141.584 18.5535C141.193 17.8115 140.997 16.9554 140.997 15.9852C140.997 15.0149 141.193 14.1588 141.556 13.4168C141.948 12.6748 142.479 12.1041 143.178 11.7331C143.877 11.3336 144.66 11.1338 145.555 11.1338C146.421 11.1338 147.204 11.3336 147.875 11.7331C148.546 12.1326 149.077 12.6463 149.441 13.3312C149.804 14.0161 150 14.7866 150 15.6427C150 15.9852 149.972 16.2991 149.944 16.613ZM148.015 13.8163C147.763 13.3882 147.4 13.0458 146.953 12.846C146.505 12.6177 146.002 12.5036 145.471 12.5036C144.688 12.5036 144.045 12.7604 143.486 13.2741C142.954 13.7878 142.619 14.4727 142.563 15.3859H148.406C148.406 14.758 148.267 14.2444 148.015 13.8163Z" fill="black"/>
<path d="M67.0176 28V31.1677H67.9123V28.9132H116.868V43.0107H114.995V43.9239H117.763V28H67.0176Z" fill="#EC2D86"/>
<path d="M82.3392 37.4456C82.2833 37.4171 82.2554 37.36 82.1995 37.3315C82.0317 37.2173 81.836 37.1603 81.6403 37.1032C81.4446 37.0461 81.2488 37.0176 81.0531 37.0176C80.8574 37.0176 80.6617 37.0461 80.466 37.1032C80.2703 37.1603 80.1025 37.2173 79.9348 37.3315C79.767 37.4456 79.5993 37.5598 79.4595 37.7025C79.3197 37.8452 79.2078 38.0164 79.096 38.2162C78.8723 38.6157 78.7605 39.0723 78.7605 39.6145C78.7605 40.0711 78.8444 40.4706 79.0121 40.8416C79.0401 40.8987 79.0401 40.9557 79.068 41.0128C79.124 41.0984 79.1799 41.1555 79.2358 41.2411C79.4036 41.498 79.5993 41.6977 79.8229 41.8689C79.8509 41.8975 79.8789 41.926 79.9068 41.9546C79.9627 41.9831 80.0186 41.9831 80.0746 42.0116C80.3821 42.1829 80.6897 42.2685 81.0531 42.2685C81.4725 42.2685 81.836 42.1543 82.1995 41.9546C82.2833 41.8975 82.3672 41.8404 82.4511 41.7548C82.535 41.6977 82.6188 41.6406 82.7027 41.555C82.7307 41.5265 82.7586 41.4694 82.8146 41.4123C82.8984 41.2982 83.0103 41.184 83.0941 41.0414C83.1221 40.9557 83.1501 40.8701 83.178 40.8131C83.3178 40.4991 83.3737 40.1282 83.4017 39.7286C83.4017 39.7001 83.4017 39.6716 83.4017 39.643C83.4017 39.1008 83.2899 38.6442 83.0941 38.2447C82.8705 37.8737 82.6188 37.6454 82.3392 37.4456Z" fill="#EC2D86"/>
<path d="M101.826 37.1321C101.519 36.9894 101.183 36.9038 100.792 36.9038C100.68 36.9038 100.54 36.9038 100.429 36.9323C100.289 36.9609 100.149 36.9894 100.037 37.018C99.8134 37.1036 99.5897 37.2177 99.422 37.3889C99.3381 37.4746 99.2542 37.5602 99.1704 37.6743C98.9467 37.9882 98.8069 38.3592 98.751 38.7873H102.889C102.889 38.2165 102.665 37.7599 102.274 37.3889C102.106 37.2748 101.966 37.1892 101.826 37.1321Z" fill="#EC2D86"/>
<path d="M114.995 31.1675H67.9125H67.0178H65.1445V46.1782H89.1054L90.1119 43.8381L89.7764 43.0105L88.2666 39.2436L86.617 35.1913H89.0774L91.3142 41.3839L93.5788 35.1913H95.9274L94.5294 38.6157L92.7121 43.039L92.5444 43.41L91.398 46.1782H114.967V43.9237V43.0105V31.1675H114.995ZM75.769 42.2685V43.0105V43.9237V44.0379H69.9535V43.9237V43.0105V32.8797H72.1622V42.2685H75.769ZM85.5546 44.0664H83.3458V43.9522V43.039V42.7822C83.2899 42.8678 83.206 42.9534 83.1222 43.039C83.0103 43.1817 82.8705 43.3244 82.7307 43.4386C82.563 43.5813 82.3952 43.6954 82.1995 43.8096C81.892 43.9808 81.5844 44.0664 81.221 44.1235C80.9973 44.1805 80.7457 44.2091 80.494 44.2091C80.2704 44.2091 80.0467 44.1805 79.823 44.152C79.795 44.152 79.7671 44.152 79.7391 44.1235C79.2918 44.0379 78.9004 43.8666 78.5089 43.6383C78.3691 43.5527 78.2573 43.4671 78.1175 43.353C78.0057 43.2673 77.8938 43.1532 77.782 43.039C77.6422 42.8964 77.5304 42.7537 77.4185 42.5825C77.4185 42.5825 77.4185 42.5824 77.4185 42.5539C77.3067 42.3827 77.1949 42.2115 77.111 42.0117C77.0271 41.8405 76.9432 41.6693 76.8873 41.4695C76.6916 40.8987 76.5798 40.2709 76.5798 39.6146C76.5798 38.8155 76.7196 38.1306 76.9991 37.5028C77.0271 37.4172 77.083 37.3316 77.111 37.246C77.1949 37.0747 77.3067 36.9035 77.3906 36.7608C77.6981 36.3042 78.0895 35.9332 78.5369 35.6479C79.152 35.2769 79.823 35.0771 80.5499 35.0771C80.9693 35.0771 81.3328 35.1627 81.6683 35.2483C81.864 35.3054 82.0597 35.3625 82.2554 35.4766C82.3952 35.5622 82.5071 35.6479 82.6469 35.7335C82.9544 35.9618 83.206 36.1901 83.4297 36.4754V35.2198H85.6385V44.0664H85.5546ZM105.07 40.2995H98.7233C98.7233 40.4707 98.7513 40.6134 98.8072 40.7561C98.919 41.1841 99.1147 41.5266 99.3943 41.8119C99.4223 41.8405 99.4782 41.869 99.5341 41.9261C99.7019 42.0402 99.8696 42.1544 100.037 42.24C100.289 42.3256 100.541 42.3827 100.82 42.3827C101.407 42.3827 101.855 42.1829 102.19 41.8405C102.218 41.8119 102.246 41.8119 102.246 41.7834C102.274 41.7263 102.302 41.6693 102.358 41.6122C102.414 41.5266 102.498 41.4124 102.554 41.2983H104.93C104.874 41.498 104.79 41.6693 104.734 41.8405C104.707 41.9261 104.651 41.9832 104.623 42.0688C104.567 42.1544 104.539 42.24 104.483 42.3256C104.427 42.4112 104.371 42.4968 104.287 42.5825C104.259 42.6395 104.203 42.6966 104.175 42.7251C104.036 42.8964 103.868 43.0676 103.7 43.2103C103.644 43.2673 103.588 43.3244 103.532 43.3815C103.364 43.4956 103.197 43.6098 103.029 43.6954C102.638 43.8952 102.218 44.0379 101.771 44.1235H101.743C101.491 44.152 101.212 44.1805 100.932 44.1805C100.652 44.1805 100.401 44.152 100.149 44.1235C100.121 44.1235 100.065 44.1235 100.037 44.0949C99.5341 44.0093 99.0868 43.8381 98.6674 43.6098C98.5276 43.5242 98.3598 43.4386 98.248 43.3244C98.1082 43.2103 97.9964 43.1247 97.8566 42.982C97.7168 42.8393 97.577 42.6966 97.4651 42.5254C97.3533 42.3541 97.2415 42.1829 97.1296 42.0117C97.0458 41.8405 96.9619 41.6693 96.878 41.4695C96.8221 41.2697 96.7382 41.0985 96.7102 40.8987C96.6264 40.4992 96.5705 40.0997 96.5705 39.6431V39.6146C96.5705 39.3863 96.5705 39.158 96.5984 38.9582C96.6543 38.5301 96.7382 38.1306 96.878 37.7596C96.9339 37.5599 97.0178 37.3886 97.1296 37.2174C97.2135 37.0462 97.3253 36.875 97.4372 36.7323C97.7727 36.2757 98.1921 35.9047 98.6674 35.6193C99.3384 35.2483 100.093 35.0486 100.932 35.0486C101.128 35.0486 101.351 35.0486 101.547 35.0771C101.855 35.1056 102.106 35.1913 102.386 35.2769C102.666 35.3625 102.917 35.4766 103.169 35.5908C103.337 35.6764 103.476 35.7905 103.644 35.9047C103.98 36.1615 104.259 36.4754 104.511 36.8464C104.567 36.932 104.651 37.0462 104.707 37.1603C104.986 37.674 105.154 38.2162 105.21 38.8155C105.238 39.0153 105.238 39.215 105.238 39.4433C105.126 39.7572 105.098 40.0426 105.07 40.2995ZM111.529 37.4172H110.941C110.606 37.4172 110.298 37.4457 110.047 37.5313C109.795 37.6169 109.571 37.7311 109.404 37.9023C109.236 38.0735 109.096 38.3018 109.012 38.5872C108.928 38.8726 108.872 39.215 108.872 39.6431V44.0664H106.664V35.1913H108.872V36.5611C109.012 36.3328 109.18 36.1045 109.348 35.9332C109.515 35.762 109.739 35.5908 109.963 35.4481C110.41 35.1913 110.941 35.0486 111.529 35.0486V37.4172Z" fill="#EC2D86"/>
</svg>
