<svg width="66" height="49" viewBox="0 0 66 49" fill="none" xmlns="http://www.w3.org/2000/svg">
<path fill-rule="evenodd" clip-rule="evenodd" d="M26.8005 0C15.1142 0 4.48025 9.3401 3.03433 20.8731L0.435337 41.7371L0.0235271 45.1212C-0.296771 47.7202 2.72318 49.0287 4.828 47.1878L11.0326 41.7371H21.6116H42.0833C53.7696 41.7371 64.4035 32.397 65.8403 20.8731C67.2679 9.34912 58.9676 0 47.2721 0H26.8005Z" fill="#EC2D86"/>
<path d="M28.6778 11.5208L26.4818 19.9448H23.9978L22.6538 14.4008L21.2618 19.9448H18.7778L16.6418 11.5208H18.8378L20.0498 17.6528L21.5498 11.5208H23.8058L25.2458 17.6528L26.4698 11.5208H28.6778ZM36.0189 16.4888C36.0189 16.6808 36.0069 16.8808 35.9829 17.0888H31.3389C31.3709 17.5048 31.5029 17.8248 31.7349 18.0488C31.9749 18.2648 32.2669 18.3728 32.6109 18.3728C33.1229 18.3728 33.4789 18.1568 33.6789 17.7248H35.8629C35.7509 18.1648 35.5469 18.5608 35.2509 18.9128C34.9629 19.2648 34.5989 19.5408 34.1589 19.7408C33.7189 19.9408 33.2269 20.0408 32.6829 20.0408C32.0269 20.0408 31.4429 19.9008 30.9309 19.6208C30.4189 19.3408 30.0189 18.9408 29.7309 18.4208C29.4429 17.9008 29.2989 17.2928 29.2989 16.5968C29.2989 15.9008 29.4389 15.2928 29.7189 14.7728C30.0069 14.2528 30.4069 13.8528 30.9189 13.5728C31.4309 13.2928 32.0189 13.1528 32.6829 13.1528C33.3309 13.1528 33.9069 13.2888 34.4109 13.5608C34.9149 13.8328 35.3069 14.2208 35.5869 14.7248C35.8749 15.2288 36.0189 15.8168 36.0189 16.4888ZM33.9189 15.9488C33.9189 15.5968 33.7989 15.3168 33.5589 15.1088C33.3189 14.9008 33.0189 14.7968 32.6589 14.7968C32.3149 14.7968 32.0229 14.8968 31.7829 15.0968C31.5509 15.2968 31.4069 15.5808 31.3509 15.9488H33.9189ZM37.5694 11.5208H39.6694L38.3254 14.7368H36.9454L37.5694 11.5208ZM42.9269 14.3648C43.1669 13.9968 43.4669 13.7088 43.8269 13.5008C44.1869 13.2848 44.5869 13.1768 45.0269 13.1768V15.3488H44.4629C43.9509 15.3488 43.5669 15.4608 43.3109 15.6848C43.0549 15.9008 42.9269 16.2848 42.9269 16.8368V19.9448H40.8749V13.2488H42.9269V14.3648ZM52.3197 16.4888C52.3197 16.6808 52.3077 16.8808 52.2837 17.0888H47.6397C47.6717 17.5048 47.8037 17.8248 48.0357 18.0488C48.2757 18.2648 48.5677 18.3728 48.9117 18.3728C49.4237 18.3728 49.7797 18.1568 49.9797 17.7248H52.1637C52.0517 18.1648 51.8477 18.5608 51.5517 18.9128C51.2637 19.2648 50.8997 19.5408 50.4597 19.7408C50.0197 19.9408 49.5277 20.0408 48.9837 20.0408C48.3277 20.0408 47.7437 19.9008 47.2317 19.6208C46.7197 19.3408 46.3197 18.9408 46.0317 18.4208C45.7437 17.9008 45.5997 17.2928 45.5997 16.5968C45.5997 15.9008 45.7397 15.2928 46.0197 14.7728C46.3077 14.2528 46.7077 13.8528 47.2197 13.5728C47.7317 13.2928 48.3197 13.1528 48.9837 13.1528C49.6317 13.1528 50.2077 13.2888 50.7117 13.5608C51.2157 13.8328 51.6077 14.2208 51.8877 14.7248C52.1757 15.2288 52.3197 15.8168 52.3197 16.4888ZM50.2197 15.9488C50.2197 15.5968 50.0997 15.3168 49.8597 15.1088C49.6197 14.9008 49.3197 14.7968 48.9597 14.7968C48.6157 14.7968 48.3237 14.8968 48.0837 15.0968C47.8517 15.2968 47.7077 15.5808 47.6517 15.9488H50.2197ZM25.8408 23.5208V31.9448H23.7888V28.4768H20.5968V31.9448H18.5448V23.5208H20.5968V26.8208H23.7888V23.5208H25.8408ZM33.6341 28.4888C33.6341 28.6808 33.6221 28.8808 33.5981 29.0888H28.9541C28.9861 29.5048 29.1181 29.8248 29.3501 30.0488C29.5901 30.2648 29.8821 30.3728 30.2261 30.3728C30.7381 30.3728 31.0941 30.1568 31.2941 29.7248H33.4781C33.3661 30.1648 33.1621 30.5608 32.8661 30.9128C32.5781 31.2648 32.2141 31.5408 31.7741 31.7408C31.3341 31.9408 30.8421 32.0408 30.2981 32.0408C29.6421 32.0408 29.0581 31.9008 28.5461 31.6208C28.0341 31.3408 27.6341 30.9408 27.3461 30.4208C27.0581 29.9008 26.9141 29.2928 26.9141 28.5968C26.9141 27.9008 27.0541 27.2928 27.3341 26.7728C27.6221 26.2528 28.0221 25.8528 28.5341 25.5728C29.0461 25.2928 29.6341 25.1528 30.2981 25.1528C30.9461 25.1528 31.5221 25.2888 32.0261 25.5608C32.5301 25.8328 32.9221 26.2208 33.2021 26.7248C33.4901 27.2288 33.6341 27.8168 33.6341 28.4888ZM31.5341 27.9488C31.5341 27.5968 31.4141 27.3168 31.1741 27.1088C30.9341 26.9008 30.6341 26.7968 30.2741 26.7968C29.9301 26.7968 29.6381 26.8968 29.3981 27.0968C29.1661 27.2968 29.0221 27.5808 28.9661 27.9488H31.5341ZM36.7687 26.3648C37.0087 25.9968 37.3087 25.7088 37.6687 25.5008C38.0287 25.2848 38.4287 25.1768 38.8687 25.1768V27.3488H38.3047C37.7927 27.3488 37.4087 27.4608 37.1527 27.6848C36.8967 27.9008 36.7687 28.2848 36.7687 28.8368V31.9448H34.7167V25.2488H36.7687V26.3648ZM46.1615 28.4888C46.1615 28.6808 46.1495 28.8808 46.1255 29.0888H41.4815C41.5135 29.5048 41.6455 29.8248 41.8775 30.0488C42.1175 30.2648 42.4095 30.3728 42.7535 30.3728C43.2655 30.3728 43.6215 30.1568 43.8215 29.7248H46.0055C45.8935 30.1648 45.6895 30.5608 45.3935 30.9128C45.1055 31.2648 44.7415 31.5408 44.3015 31.7408C43.8615 31.9408 43.3695 32.0408 42.8255 32.0408C42.1695 32.0408 41.5855 31.9008 41.0735 31.6208C40.5615 31.3408 40.1615 30.9408 39.8735 30.4208C39.5855 29.9008 39.4415 29.2928 39.4415 28.5968C39.4415 27.9008 39.5815 27.2928 39.8615 26.7728C40.1495 26.2528 40.5495 25.8528 41.0615 25.5728C41.5735 25.2928 42.1615 25.1528 42.8255 25.1528C43.4735 25.1528 44.0495 25.2888 44.5535 25.5608C45.0575 25.8328 45.4495 26.2208 45.7295 26.7248C46.0175 27.2288 46.1615 27.8168 46.1615 28.4888ZM44.0615 27.9488C44.0615 27.5968 43.9415 27.3168 43.7015 27.1088C43.4615 26.9008 43.1615 26.7968 42.8015 26.7968C42.4575 26.7968 42.1655 26.8968 41.9255 27.0968C41.6935 27.2968 41.5495 27.5808 41.4935 27.9488H44.0615ZM49.944 23.2208L49.704 28.9688H47.964L47.724 23.2208H49.944ZM48.864 32.0408C48.504 32.0408 48.208 31.9368 47.976 31.7288C47.752 31.5128 47.64 31.2488 47.64 30.9368C47.64 30.6168 47.752 30.3488 47.976 30.1328C48.208 29.9168 48.504 29.8088 48.864 29.8088C49.216 29.8088 49.504 29.9168 49.728 30.1328C49.96 30.3488 50.076 30.6168 50.076 30.9368C50.076 31.2488 49.96 31.5128 49.728 31.7288C49.504 31.9368 49.216 32.0408 48.864 32.0408Z" fill="white"/>
</svg>
